<svg width="21" height="20" viewBox="0 0 21 20" fill="none" xmlns="http://www.w3.org/2000/svg">
<path d="M10.297 13.3048C9.64334 13.3048 9.00435 13.111 8.46085 12.7478C7.91734 12.3847 7.49373 11.8685 7.24358 11.2646C6.99344 10.6607 6.92799 9.99616 7.05551 9.35505C7.18304 8.71394 7.4978 8.12505 7.96002 7.66284C8.42223 7.20062 9.01113 6.88585 9.65223 6.75833C10.2933 6.63081 10.9579 6.69626 11.5618 6.9464C12.1657 7.19655 12.6819 7.62016 13.045 8.16367C13.4082 8.70717 13.602 9.34616 13.602 9.99983C13.5906 10.8728 13.2387 11.7069 12.6214 12.3242C12.004 12.9416 11.17 13.2934 10.297 13.3048ZM10.297 7.42882C9.78851 7.42882 9.29143 7.57961 8.86863 7.86212C8.44584 8.14462 8.11631 8.54616 7.92171 9.01595C7.72712 9.48574 7.6762 10.0027 7.77541 10.5014C7.87461 11.0001 8.11947 11.4582 8.47903 11.8178C8.83859 12.1774 9.2967 12.4222 9.79543 12.5214C10.2942 12.6206 10.8111 12.5697 11.2809 12.3751C11.7507 12.1805 12.1522 11.851 12.4347 11.4282C12.7172 11.0054 12.868 10.5083 12.868 9.99983C12.8592 9.32069 12.5855 8.67185 12.1052 8.19159C11.625 7.71133 10.9761 7.43763 10.297 7.42882Z" fill="white"/>
<path d="M15.851 5.22599C15.3425 5.22599 14.8455 5.0752 14.4227 4.79269C13.9999 4.51019 13.6703 4.10865 13.4757 3.63886C13.2811 3.16908 13.2302 2.65213 13.3294 2.15341C13.4286 1.65468 13.6735 1.19658 14.0331 0.837014C14.3926 0.477453 14.8507 0.232589 15.3495 0.133387C15.8482 0.034184 16.3651 0.0850983 16.8349 0.279691C17.3047 0.474284 17.7062 0.803816 17.9887 1.22661C18.2712 1.64941 18.422 2.14649 18.422 2.65499C18.4132 3.33412 18.1395 3.98296 17.6593 4.46322C17.179 4.94348 16.5302 5.21718 15.851 5.22599ZM15.851 0.818986C15.4881 0.819777 15.1336 0.928102 14.8322 1.13028C14.5308 1.33246 14.2961 1.61942 14.1577 1.95492C14.0194 2.29041 13.9835 2.65939 14.0547 3.01525C14.1259 3.37111 14.301 3.69788 14.5578 3.95429C14.8147 4.2107 15.1417 4.38524 15.4977 4.45587C15.8537 4.52651 16.2226 4.49006 16.5579 4.35113C16.8931 4.2122 17.1797 3.97703 17.3814 3.67532C17.5831 3.37361 17.6908 3.0189 17.691 2.65599C17.6848 2.1702 17.4888 1.70612 17.145 1.36287C16.8012 1.01962 16.3368 0.824428 15.851 0.818986Z" fill="white"/>
<path d="M3.78301 6.83506C3.34789 6.83506 2.92254 6.70603 2.56075 6.46429C2.19897 6.22255 1.91699 5.87896 1.75047 5.47696C1.58396 5.07497 1.54039 4.63262 1.62528 4.20586C1.71017 3.7791 1.9197 3.3871 2.22737 3.07942C2.53505 2.77175 2.92705 2.56222 3.35381 2.47733C3.78057 2.39244 4.22292 2.43601 4.62491 2.60252C5.02691 2.76904 5.3705 3.05102 5.61224 3.41281C5.85398 3.77459 5.98301 4.19994 5.98301 4.63506C5.97449 5.21588 5.73997 5.77052 5.32922 6.18127C4.91847 6.59202 4.36383 6.82654 3.78301 6.83506ZM3.78301 3.16306C3.49247 3.16306 3.20845 3.24922 2.96688 3.41063C2.7253 3.57205 2.53701 3.80147 2.42583 4.0699C2.31464 4.33832 2.28555 4.63369 2.34224 4.91865C2.39892 5.20361 2.53883 5.46536 2.74427 5.6708C2.94971 5.87624 3.21146 6.01615 3.49642 6.07283C3.78138 6.12951 4.07675 6.10042 4.34517 5.98924C4.6136 5.87805 4.84302 5.68977 5.00444 5.44819C5.16585 5.20662 5.25201 4.9226 5.25201 4.63206C5.24709 4.24389 5.09077 3.87299 4.81637 3.5984C4.54196 3.32381 4.17117 3.16724 3.78301 3.16206V3.16306Z" fill="white"/>
<path d="M12.956 6.85282C12.8869 6.85355 12.819 6.83475 12.7601 6.79858C12.7012 6.76242 12.6537 6.71037 12.6231 6.64841C12.5925 6.58645 12.58 6.51711 12.5871 6.44837C12.5941 6.37962 12.6204 6.31427 12.663 6.25982L14.232 4.18682C14.2907 4.10911 14.378 4.05792 14.4744 4.04451C14.5709 4.0311 14.6688 4.05657 14.7465 4.11532C14.8242 4.17407 14.8754 4.26127 14.8888 4.35776C14.9022 4.45425 14.8767 4.55211 14.818 4.62982L13.249 6.70782C13.2147 6.75299 13.1704 6.78959 13.1195 6.81475C13.0687 6.8399 13.0127 6.85294 12.956 6.85282Z" fill="white"/>
<path d="M6.897 7.56398C6.81159 7.56414 6.72881 7.53443 6.66301 7.47998L4.963 6.07998C4.88782 6.01805 4.84031 5.92879 4.83093 5.83184C4.82155 5.73488 4.85108 5.63817 4.91301 5.56298C4.97493 5.48779 5.06419 5.44028 5.16115 5.43091C5.25811 5.42153 5.35481 5.45105 5.43 5.51298L7.13 6.91298C7.18811 6.96128 7.22995 7.0263 7.24982 7.0992C7.26969 7.1721 7.26664 7.24935 7.24108 7.32046C7.21552 7.39157 7.16869 7.45308 7.10696 7.49665C7.04522 7.54022 6.97157 7.56373 6.89601 7.56398H6.897Z" fill="white"/>
<path d="M8.828 10.3679C8.7798 10.3679 8.73208 10.3584 8.68755 10.3399C8.64303 10.3215 8.60257 10.2945 8.56849 10.2604C8.53441 10.2263 8.50738 10.1858 8.48894 10.1413C8.47049 10.0968 8.461 10.0491 8.461 10.0009C8.46093 9.5506 8.62633 9.116 8.92575 8.7797C9.22517 8.44341 9.63774 8.22887 10.085 8.17687C10.1805 8.16798 10.2757 8.19685 10.3502 8.2573C10.4247 8.31775 10.4726 8.40497 10.4836 8.50028C10.4946 8.5956 10.4678 8.69142 10.409 8.76723C10.3502 8.84304 10.264 8.8928 10.169 8.90587C9.90047 8.93683 9.65275 9.06559 9.47309 9.26755C9.29344 9.46952 9.19445 9.73057 9.195 10.0009C9.195 10.0982 9.15633 10.1916 9.08751 10.2604C9.01868 10.3292 8.92533 10.3679 8.828 10.3679Z" fill="white"/>
<path d="M17.642 19.9149C17.1335 19.9149 16.6365 19.7642 16.2137 19.4817C15.7909 19.1992 15.4613 18.7976 15.2668 18.3278C15.0722 17.858 15.0212 17.3411 15.1204 16.8424C15.2196 16.3436 15.4645 15.8855 15.8241 15.526C16.1836 15.1664 16.6417 14.9216 17.1405 14.8224C17.6392 14.7231 18.1561 14.7741 18.6259 14.9687C19.0957 15.1632 19.4973 15.4928 19.7798 15.9156C20.0623 16.3384 20.213 16.8355 20.213 17.344C20.2042 18.0231 19.9305 18.6719 19.4503 19.1522C18.97 19.6324 18.3212 19.9061 17.642 19.9149ZM17.642 15.508C17.2789 15.508 16.9239 15.6156 16.622 15.8174C16.3201 16.0191 16.0848 16.3059 15.9458 16.6413C15.8068 16.9768 15.7705 17.346 15.8413 17.7021C15.9122 18.0583 16.087 18.3854 16.3438 18.6422C16.6006 18.899 16.9277 19.0738 17.2839 19.1447C17.64 19.2155 18.0092 19.1792 18.3447 19.0402C18.6801 18.9012 18.9669 18.6659 19.1686 18.364C19.3704 18.062 19.478 17.7071 19.478 17.344C19.4716 16.859 19.2761 16.3958 18.9331 16.0529C18.5902 15.7099 18.127 15.5144 17.642 15.508Z" fill="white"/>
<path d="M16.084 16.1539C16.0357 16.154 15.9879 16.1444 15.9432 16.1259C15.8986 16.1074 15.8581 16.0802 15.824 16.0459L13.153 13.3759C13.0851 13.3069 13.0472 13.2138 13.0476 13.117C13.048 13.0202 13.0866 12.9274 13.1551 12.859C13.2236 12.7905 13.3163 12.7519 13.4131 12.7515C13.51 12.7511 13.603 12.789 13.672 12.8569L16.342 15.5279C16.3936 15.5792 16.4287 15.6447 16.4429 15.716C16.4572 15.7874 16.4499 15.8613 16.422 15.9285C16.3942 15.9957 16.347 16.0531 16.2865 16.0934C16.2259 16.1337 16.1548 16.1551 16.082 16.1549L16.084 16.1539Z" fill="white"/>
<path d="M2.21802 16.3658C1.85489 16.3658 1.49992 16.2582 1.19799 16.0564C0.896064 15.8547 0.660739 15.5679 0.521777 15.2325C0.382814 14.897 0.346456 14.5278 0.417298 14.1717C0.488141 13.8155 0.663003 13.4884 0.919772 13.2316C1.17654 12.9748 1.50368 12.8 1.85983 12.7291C2.21598 12.6583 2.58514 12.6946 2.92063 12.8336C3.25611 12.9726 3.54286 13.2079 3.7446 13.5098C3.94634 13.8118 4.05402 14.1667 4.05402 14.5299C4.04755 15.0148 3.85204 15.478 3.50911 15.8209C3.16619 16.1639 2.70294 16.3594 2.21802 16.3658ZM2.21802 13.4278C2.00046 13.4278 1.78779 13.4924 1.60689 13.6132C1.426 13.7341 1.28501 13.9059 1.20175 14.1069C1.1185 14.3079 1.09671 14.5291 1.13916 14.7424C1.1816 14.9558 1.28636 15.1518 1.4402 15.3057C1.59404 15.4595 1.79004 15.5643 2.00342 15.6067C2.2168 15.6492 2.43797 15.6274 2.63897 15.5441C2.83997 15.4609 3.01177 15.3199 3.13264 15.139C3.25351 14.9581 3.31802 14.7454 3.31802 14.5278C3.31363 14.2375 3.19633 13.9602 2.99099 13.7549C2.78564 13.5495 2.50839 13.4322 2.21802 13.4278Z" fill="white"/>
<path d="M3.49902 14.1789C3.41783 14.179 3.33891 14.1521 3.27461 14.1026C3.21032 14.053 3.16428 13.9835 3.1437 13.905C3.12312 13.8264 3.12917 13.7433 3.16089 13.6685C3.19262 13.5938 3.24823 13.5317 3.31902 13.4919L6.27302 11.8349C6.3577 11.7899 6.45663 11.7798 6.54865 11.8068C6.64067 11.8339 6.71846 11.8958 6.76537 11.9794C6.81229 12.0631 6.8246 12.1618 6.79968 12.2544C6.77476 12.347 6.71458 12.4261 6.63202 12.4749L3.67802 14.1319C3.62338 14.1627 3.56174 14.1789 3.49902 14.1789Z" fill="white"/>
</svg>
