<svg width="18" height="18" viewBox="0 0 18 18" fill="none" xmlns="http://www.w3.org/2000/svg">
<path d="M4.95805 16.492H3.35105C3.28193 16.492 3.21511 16.4672 3.16279 16.422C3.11047 16.3769 3.07613 16.3144 3.06605 16.246L2.84905 14.799C2.83765 14.7234 2.85674 14.6464 2.90212 14.5849C2.9475 14.5234 3.01546 14.4824 3.09105 14.471C3.16664 14.4596 3.24366 14.4787 3.30517 14.5241C3.36668 14.5695 3.40765 14.6374 3.41905 14.713L3.59805 15.913H4.95805C5.03443 15.913 5.10769 15.9433 5.1617 15.9974C5.21571 16.0514 5.24605 16.1246 5.24605 16.201C5.24605 16.2774 5.21571 16.3506 5.1617 16.4046C5.10769 16.4587 5.03443 16.489 4.95805 16.489V16.492Z" fill="white"/>
<path d="M17.33 5.84198C17.249 5.74792 17.1486 5.67243 17.0357 5.62066C16.9229 5.56889 16.8002 5.54206 16.676 5.54198H16.476V4.67698C16.4752 4.44808 16.384 4.22877 16.2221 4.06691C16.0602 3.90505 15.8409 3.81377 15.612 3.81298H14.748V1.79598C14.748 1.7196 14.7177 1.64634 14.6637 1.59233C14.6097 1.53832 14.5364 1.50798 14.46 1.50798H7.54703V1.21898C7.54624 0.990077 7.45496 0.770774 7.29309 0.608914C7.13123 0.447053 6.91193 0.355771 6.68303 0.35498H2.36003C2.13112 0.355771 1.91182 0.447053 1.74996 0.608914C1.5881 0.770774 1.49682 0.990077 1.49603 1.21898V5.54198H1.29603C1.17157 5.54181 1.04855 5.5686 0.935426 5.62049C0.822303 5.67239 0.721759 5.74817 0.640708 5.84262C0.559656 5.93707 0.500018 6.04795 0.465894 6.16764C0.43177 6.28733 0.423969 6.41299 0.443028 6.53598L2.00303 16.91C2.03249 17.1148 2.13509 17.3021 2.29188 17.4372C2.44867 17.5723 2.64906 17.6461 2.85603 17.645H15.12C15.327 17.6461 15.5274 17.5723 15.6842 17.4372C15.841 17.3021 15.9436 17.1148 15.973 16.91L17.529 6.53598C17.5475 6.4128 17.5393 6.28708 17.505 6.16734C17.4707 6.0476 17.411 5.93664 17.33 5.84198ZM14.751 4.38898H15.612C15.6884 4.38898 15.7617 4.41932 15.8157 4.47333C15.8697 4.52734 15.9 4.6006 15.9 4.67698V5.54098H14.751V4.38898ZM14.175 2.08398V5.54198H3.80103V4.38898H5.81803C5.89441 4.38898 5.96766 4.35864 6.02168 4.30463C6.07569 4.25062 6.10603 4.17736 6.10603 4.10098V2.08398H14.175ZM4.21203 3.81298L5.53003 2.48998V3.81298H4.21203ZM2.07203 1.21898C2.07203 1.18116 2.07948 1.14371 2.09395 1.10877C2.10842 1.07383 2.12964 1.04208 2.15638 1.01533C2.18312 0.98859 2.21487 0.967377 2.24982 0.952903C2.28476 0.93843 2.32221 0.93098 2.36003 0.93098H6.68303C6.75941 0.93098 6.83266 0.961323 6.88667 1.01533C6.94069 1.06934 6.97103 1.1426 6.97103 1.21898V1.50698H5.81803C5.74322 1.50905 5.67188 1.53901 5.61803 1.59098L3.31203 3.89598C3.26006 3.94984 3.2301 4.02117 3.22803 4.09598V5.54198H2.07203V1.21898ZM15.405 16.819C15.3947 16.8872 15.3603 16.9494 15.308 16.9944C15.2557 17.0393 15.189 17.064 15.12 17.064H2.85603C2.78706 17.064 2.72036 17.0393 2.66806 16.9944C2.61576 16.9494 2.58133 16.8872 2.57103 16.819L1.01203 6.44998C1.00589 6.409 1.0086 6.36717 1.01998 6.32732C1.03137 6.28748 1.05116 6.25053 1.07803 6.21898C1.10507 6.18739 1.13867 6.16208 1.17649 6.14481C1.21432 6.12754 1.25545 6.11873 1.29703 6.11898H16.676C16.7176 6.11873 16.7587 6.12754 16.7966 6.14481C16.8344 6.16208 16.868 6.18739 16.895 6.21898C16.9219 6.25053 16.9417 6.28748 16.9531 6.32732C16.9645 6.36717 16.9672 6.409 16.961 6.44998L15.405 16.819Z" fill="white"/>
<path d="M6.68304 3.52482C6.68304 3.6012 6.71339 3.67445 6.7674 3.72846C6.82141 3.78247 6.89466 3.81282 6.97104 3.81282H13.311C13.3874 3.81282 13.4607 3.78247 13.5147 3.72846C13.5687 3.67445 13.599 3.6012 13.599 3.52482C13.599 3.44843 13.5687 3.37518 13.5147 3.32117C13.4607 3.26716 13.3874 3.23682 13.311 3.23682H6.97104C6.89466 3.23682 6.82141 3.26716 6.7674 3.32117C6.71339 3.37518 6.68304 3.44843 6.68304 3.52482Z" fill="white"/>
<path d="M13.311 4.38916H6.97104C6.89466 4.38916 6.82141 4.4195 6.7674 4.47351C6.71339 4.52752 6.68304 4.60078 6.68304 4.67716C6.68304 4.75354 6.71339 4.8268 6.7674 4.88081C6.82141 4.93482 6.89466 4.96516 6.97104 4.96516H13.311C13.3874 4.96516 13.4607 4.93482 13.5147 4.88081C13.5687 4.8268 13.599 4.75354 13.599 4.67716C13.599 4.60078 13.5687 4.52752 13.5147 4.47351C13.4607 4.4195 13.3874 4.38916 13.311 4.38916Z" fill="white"/>
<path d="M15.904 6.69482H14.175C14.0986 6.69482 14.0254 6.72517 13.9714 6.77918C13.9174 6.83319 13.887 6.90644 13.887 6.98282C13.887 7.05921 13.9174 7.13246 13.9714 7.18647C14.0254 7.24048 14.0986 7.27082 14.175 7.27082H15.564L15.333 8.66382C15.3267 8.70119 15.3279 8.73943 15.3364 8.77636C15.3449 8.81329 15.3606 8.84817 15.3826 8.87901C15.4046 8.90986 15.4325 8.93605 15.4647 8.95609C15.4968 8.97614 15.5326 8.98964 15.57 8.99582C15.5853 8.99712 15.6007 8.99712 15.616 8.99582C15.6842 8.99579 15.7502 8.97155 15.8022 8.92742C15.8542 8.88328 15.8889 8.82212 15.9 8.75482L16.188 7.02582C16.1942 6.9849 16.1915 6.94312 16.1801 6.90334C16.1686 6.86355 16.1488 6.8267 16.1218 6.79529C16.0949 6.76387 16.0615 6.73864 16.0239 6.7213C15.9863 6.70397 15.9454 6.69494 15.904 6.69482Z" fill="white"/>
</svg>
