<svg width="18" height="18" viewBox="0 0 18 18" fill="none" xmlns="http://www.w3.org/2000/svg">
<path d="M17.544 7.72405C17.3614 7.44688 17.0781 7.25174 16.754 7.18005C16.8459 7.00559 16.8963 6.8123 16.9013 6.61519C16.9064 6.41809 16.8659 6.22247 16.7831 6.04353C16.7003 5.86458 16.5774 5.70713 16.4239 5.58339C16.2704 5.45966 16.0904 5.37297 15.898 5.33005C16.005 5.12623 16.0553 4.89743 16.0437 4.66753C16.0321 4.43763 15.959 4.21506 15.832 4.02305C15.6495 3.7458 15.3661 3.55064 15.042 3.47905C15.1746 3.22655 15.2195 2.9371 15.1695 2.6563C15.1195 2.3755 14.9775 2.1193 14.7659 1.92808C14.5543 1.73686 14.2851 1.62147 14.0007 1.6001C13.7162 1.57873 13.4328 1.6526 13.195 1.81005L11.918 2.65805C11.2369 2.31248 10.5099 2.06631 9.75899 1.92705C9.52162 1.56466 9.24531 1.22933 8.93499 0.927051L8.40299 0.417051C8.19824 0.21534 7.92579 0.096983 7.63862 0.0849932C7.35145 0.0730033 7.07008 0.168238 6.84922 0.352179C6.62837 0.53612 6.48381 0.795622 6.44366 1.08022C6.40351 1.36483 6.47064 1.65419 6.63199 1.89205L6.67299 1.95505C5.29462 2.23524 4.0136 2.87135 2.95729 3.80013C1.90099 4.72891 1.1062 5.91801 0.651945 7.2492C0.197691 8.58039 0.099798 10.0073 0.367999 11.388C0.636201 12.7688 1.26115 14.0553 2.18072 15.1196C3.10029 16.184 4.28243 16.9891 5.60963 17.4549C6.93682 17.9207 8.36282 18.031 9.74585 17.7748C11.1289 17.5186 12.4208 16.9048 13.4931 15.9945C14.5653 15.0843 15.3807 13.9091 15.858 12.5861C15.8712 12.5516 15.8774 12.515 15.8763 12.4781C15.8752 12.4413 15.8667 12.405 15.8514 12.3715C15.836 12.338 15.8142 12.3079 15.7871 12.2829C15.7599 12.2579 15.7281 12.2386 15.6935 12.2261C15.6588 12.2136 15.622 12.2081 15.5852 12.21C15.5483 12.2119 15.5123 12.2212 15.4791 12.2372C15.4459 12.2532 15.4162 12.2757 15.3918 12.3033C15.3674 12.3309 15.3488 12.3631 15.337 12.3981C14.6704 14.2384 13.312 15.7459 11.5509 16.6C9.7897 17.454 7.76481 17.5872 5.90699 16.9711L8.16099 15.4791L10.034 14.2391C10.2011 14.1285 10.3176 13.9562 10.3577 13.7598C10.3978 13.5635 10.3584 13.3593 10.248 13.1921L10.223 13.1541L10.587 12.9131C10.8457 12.7414 11.1595 12.6736 11.466 12.7231C11.9098 12.7949 12.3644 12.6967 12.739 12.4481L15.757 10.4481C15.7372 10.7089 15.7038 10.9686 15.657 11.2261C15.6503 11.2618 15.6508 11.2986 15.6584 11.3342C15.6659 11.3698 15.6804 11.4036 15.701 11.4336C15.7217 11.4636 15.748 11.4892 15.7785 11.509C15.8091 11.5288 15.8432 11.5424 15.879 11.5491C15.896 11.5507 15.913 11.5507 15.93 11.5491C15.9947 11.5489 16.0573 11.5262 16.107 11.4847C16.1567 11.4433 16.1903 11.3857 16.202 11.3221C16.2788 10.9061 16.323 10.4849 16.334 10.0621L17.184 9.49905C17.3247 9.40589 17.4457 9.28592 17.5401 9.14599C17.6344 9.00606 17.7003 8.84892 17.7339 8.68353C17.7675 8.51815 17.7682 8.34776 17.736 8.1821C17.7037 8.01644 17.6392 7.85876 17.546 7.71805L17.544 7.72405ZM11.378 3.01405L10.532 3.57505L10.365 3.12605C10.295 2.93848 10.2156 2.75458 10.127 2.57505C10.5562 2.68384 10.9749 2.83076 11.378 3.01405ZM2.60599 4.93405C3.72615 3.64108 5.25467 2.76991 6.93799 2.46505C7.20937 3.12136 7.26984 3.84584 7.11099 4.53805L6.43499 7.45505C6.31316 7.32497 6.14919 7.24225 5.97217 7.22156C5.79515 7.20088 5.61653 7.24356 5.46799 7.34205L3.55499 8.60905L0.795991 10.4361C0.780991 10.2411 0.772991 10.0451 0.772991 9.84905C0.772449 8.04349 1.42329 6.29833 2.60599 4.93405ZM9.81799 13.6481C9.81284 13.674 9.80259 13.6987 9.78782 13.7207C9.77306 13.7426 9.75408 13.7615 9.73199 13.7761L8.08399 14.8661L5.02999 10.3121C5.0097 10.2818 4.98366 10.2559 4.95336 10.2358C4.92305 10.2157 4.88908 10.2017 4.85338 10.1947C4.81767 10.1877 4.78094 10.1877 4.74527 10.1949C4.7096 10.2021 4.67569 10.2163 4.64549 10.2366C4.61529 10.2568 4.58937 10.2829 4.56923 10.3132C4.54909 10.3435 4.53512 10.3775 4.52811 10.4132C4.5211 10.4489 4.52119 10.4856 4.52837 10.5213C4.53556 10.5569 4.5497 10.5908 4.56999 10.6211L7.61799 15.1721L5.27299 16.7271C4.12268 16.2223 3.11699 15.4377 2.34759 14.4447C1.57818 13.4517 1.06953 12.282 0.867991 11.0421L3.62999 9.21905L3.94799 9.69205C3.96828 9.72226 3.99432 9.74817 4.02462 9.76831C4.05493 9.78845 4.0889 9.80242 4.1246 9.80943C4.16031 9.81644 4.19704 9.81635 4.23271 9.80917C4.26838 9.80198 4.30229 9.78784 4.33249 9.76755C4.36269 9.74726 4.38861 9.72122 4.40875 9.69092C4.42889 9.66062 4.44286 9.62664 4.44987 9.59094C4.45688 9.55523 4.45679 9.5185 4.44961 9.48283C4.44242 9.44716 4.42828 9.41326 4.40799 9.38305L4.09199 8.91205L5.77299 7.80205C5.79499 7.7873 5.81971 7.77706 5.84571 7.77194C5.8717 7.76682 5.89845 7.76691 5.92441 7.77221C5.95037 7.77751 5.97501 7.78792 5.99691 7.80283C6.01882 7.81774 6.03754 7.83685 6.05199 7.85905L9.78499 13.4951C9.79955 13.5171 9.8096 13.5417 9.81458 13.5677C9.81956 13.5936 9.81936 13.6202 9.81399 13.6461L9.81799 13.6481ZM17.192 8.57905C17.1731 8.67326 17.1357 8.76278 17.082 8.84243C17.0283 8.92208 16.9593 8.99027 16.879 9.04305L15.907 9.68705L12.437 11.9871C12.1784 12.1588 11.8645 12.2266 11.558 12.1771C11.1142 12.1053 10.6596 12.2035 10.285 12.4521L9.91799 12.6921L6.85999 8.07605L7.64999 4.66205C7.85178 3.78324 7.74918 2.86194 7.35899 2.04905C7.35542 2.04052 7.35141 2.03217 7.34699 2.02405C7.27237 1.87105 7.18786 1.72306 7.09399 1.58105C7.04369 1.52038 7.00584 1.4504 6.98259 1.3751C6.95934 1.2998 6.95115 1.22066 6.95849 1.14219C6.9733 0.983722 7.05046 0.837629 7.17299 0.736051C7.29552 0.634473 7.45338 0.585731 7.61185 0.600546C7.77032 0.615361 7.91641 0.692521 8.01799 0.815051L8.54699 1.32805C9.12244 1.88685 9.56648 2.56658 9.84699 3.31805L10.133 4.09205V4.09705L10.139 4.11005C10.1445 4.12182 10.1509 4.13318 10.158 4.14405C10.1781 4.17439 10.2039 4.20048 10.2341 4.22083C10.2643 4.24117 10.2982 4.25537 10.3338 4.26261C10.3695 4.26985 10.4062 4.27 10.4419 4.26304C10.4777 4.25608 10.5117 4.24215 10.542 4.22205L13.496 2.26605C13.6586 2.15837 13.8573 2.11969 14.0484 2.15851C14.2395 2.19733 14.4073 2.31047 14.515 2.47305C14.6227 2.63563 14.6614 2.83432 14.6225 3.02542C14.5837 3.21652 14.4706 3.38437 14.308 3.49205L14.052 3.66205L13.48 4.04105L13.471 4.04805C13.4133 4.09109 13.3747 4.15487 13.3633 4.22589C13.3518 4.29691 13.3684 4.3696 13.4096 4.42858C13.4508 4.48757 13.5133 4.52821 13.5839 4.54193C13.6545 4.55564 13.7277 4.54134 13.788 4.50205L14.36 4.12305C14.5216 4.01845 14.718 3.98185 14.9065 4.02121C15.095 4.06056 15.2604 4.1727 15.3666 4.33325C15.4729 4.4938 15.5116 4.68981 15.4742 4.8787C15.4368 5.06758 15.3264 5.23409 15.167 5.34205L14.338 5.89105C14.2767 5.93163 14.2341 5.99488 14.2195 6.0669C14.2048 6.13891 14.2194 6.21379 14.26 6.27505C14.3006 6.33632 14.3638 6.37895 14.4358 6.39358C14.5079 6.40821 14.5827 6.39363 14.644 6.35305L14.772 6.26805L15.216 5.97405C15.3772 5.88355 15.5668 5.85752 15.7465 5.90121C15.9262 5.94491 16.0826 6.05507 16.1843 6.20951C16.286 6.36395 16.3254 6.55119 16.2945 6.73351C16.2637 6.91583 16.1648 7.07968 16.018 7.19205L15.604 7.46605H15.597L15.189 7.73605C15.1587 7.75614 15.1326 7.78201 15.1122 7.81219C15.0919 7.84236 15.0777 7.87624 15.0705 7.9119C15.0632 7.94756 15.0631 7.98429 15.07 8.02001C15.077 8.05572 15.0909 8.08972 15.111 8.12005C15.1311 8.15039 15.157 8.17647 15.1871 8.19681C15.2173 8.21714 15.2512 8.23134 15.2868 8.23858C15.3225 8.24582 15.3592 8.24597 15.3949 8.23902C15.4307 8.23206 15.4647 8.21814 15.495 8.19805L15.623 8.11305L16.067 7.81905C16.1875 7.73922 16.329 7.69693 16.4736 7.69752C16.6182 7.69811 16.7593 7.74156 16.8792 7.82237C16.9991 7.90318 17.0923 8.01773 17.1471 8.15153C17.2019 8.28533 17.2158 8.43237 17.187 8.57405L17.192 8.57905Z" fill="white"/>
</svg>
