<svg width="20" height="20" viewBox="0 0 20 20" fill="none" xmlns="http://www.w3.org/2000/svg">
<path d="M6.39899 1.07568C6.36494 0.997266 6.30119 0.935552 6.22171 0.904061C6.14223 0.87257 6.05351 0.87387 5.97499 0.907677C5.62223 1.0606 5.27865 1.23389 4.94599 1.42668C4.90715 1.44678 4.8728 1.47456 4.84502 1.50834C4.81724 1.54211 4.79661 1.58118 4.78438 1.62317C4.77214 1.66515 4.76857 1.70919 4.77386 1.7526C4.77915 1.79601 4.7932 1.83789 4.81516 1.87571C4.83711 1.91353 4.86652 1.9465 4.9016 1.97261C4.93668 1.99873 4.9767 2.01744 5.01923 2.02763C5.06175 2.03782 5.10591 2.03927 5.14902 2.03188C5.19212 2.0245 5.23328 2.00844 5.26999 1.98468C5.58065 1.80453 5.90153 1.64259 6.23099 1.49968C6.3094 1.46562 6.37112 1.40187 6.40261 1.32239C6.4341 1.24292 6.4328 1.1542 6.39899 1.07568Z" fill="white"/>
<path d="M12.743 0.501554C12.3741 0.392105 11.9992 0.304289 11.62 0.238554C11.5374 0.227774 11.4538 0.249355 11.3867 0.298786C11.3196 0.348216 11.2742 0.421671 11.26 0.503793C11.2458 0.585916 11.2639 0.670351 11.3105 0.739447C11.3571 0.808543 11.4285 0.856952 11.51 0.874554C11.8642 0.936096 12.2144 1.01823 12.559 1.12055C12.6 1.13395 12.6433 1.13899 12.6863 1.13539C12.7293 1.13178 12.7711 1.1196 12.8094 1.09956C12.8476 1.07952 12.8813 1.05202 12.9088 1.0187C12.9362 0.985381 12.9566 0.946907 12.9689 0.905551C12.9812 0.864194 12.9851 0.820795 12.9803 0.777913C12.9756 0.735031 12.9623 0.693537 12.9412 0.655879C12.9202 0.618222 12.8918 0.585165 12.8577 0.558659C12.8237 0.532153 12.7847 0.512736 12.743 0.501554Z" fill="white"/>
<path d="M10.476 0.108773C10.291 0.0987734 10.102 0.0927734 9.91599 0.0927734C9.71599 0.0927734 9.51598 0.0987734 9.32498 0.109773C9.2422 0.116133 9.16506 0.154125 9.10955 0.215864C9.05403 0.277602 9.02443 0.358346 9.02687 0.441335C9.02932 0.524324 9.06362 0.603185 9.12267 0.661549C9.18172 0.719913 9.26097 0.753298 9.34398 0.754773H9.36299C9.54599 0.743773 9.73199 0.738773 9.91599 0.738773C10.091 0.738773 10.267 0.738773 10.44 0.753773C10.5226 0.753802 10.602 0.722213 10.662 0.665494C10.722 0.608776 10.758 0.531236 10.7626 0.448801C10.7672 0.366367 10.7401 0.285297 10.6868 0.222245C10.6335 0.159193 10.558 0.118947 10.476 0.109773V0.108773Z" fill="white"/>
<path d="M19.762 8.83794C19.7174 8.45605 19.6507 8.07708 19.562 7.70294C19.5533 7.66053 19.5362 7.6203 19.5117 7.58464C19.4871 7.54899 19.4556 7.51863 19.4191 7.49538C19.3826 7.47212 19.3418 7.45645 19.2991 7.44928C19.2564 7.44211 19.2127 7.4436 19.1706 7.45366C19.1285 7.46372 19.0888 7.48214 19.054 7.50783C19.0191 7.53352 18.9898 7.56595 18.9677 7.6032C18.9456 7.64044 18.9313 7.68174 18.9255 7.72464C18.9197 7.76754 18.9226 7.81117 18.934 7.85294C19.0172 8.20267 19.08 8.55693 19.122 8.91394C19.1313 8.99235 19.169 9.06463 19.228 9.11714C19.2869 9.16965 19.3631 9.19874 19.442 9.19893H19.48C19.5223 9.19386 19.5631 9.18049 19.6002 9.15958C19.6373 9.13866 19.6699 9.11062 19.6961 9.07707C19.7223 9.04352 19.7416 9.00512 19.7529 8.96408C19.7642 8.92304 19.7673 8.88018 19.762 8.83794Z" fill="white"/>
<path d="M19.325 11.906C19.2417 11.8865 19.1541 11.9008 19.0814 11.9458C19.0087 11.9908 18.9567 12.0627 18.937 12.146C18.8542 12.496 18.751 12.841 18.628 13.179C18.6108 13.2194 18.6019 13.2628 18.602 13.3067C18.6021 13.3506 18.6111 13.394 18.6286 13.4343C18.646 13.4746 18.6715 13.5109 18.7034 13.541C18.7353 13.5711 18.7731 13.5944 18.8143 13.6095C18.8556 13.6245 18.8994 13.631 18.9433 13.6285C18.9871 13.626 19.03 13.6146 19.0692 13.595C19.1085 13.5754 19.1434 13.548 19.1717 13.5145C19.2001 13.4809 19.2212 13.442 19.234 13.4C19.3654 13.0384 19.4756 12.6694 19.564 12.295C19.5839 12.2117 19.5698 12.124 19.525 12.051C19.4802 11.9781 19.4083 11.9259 19.325 11.906Z" fill="white"/>
<path d="M14.86 1.41179C14.5267 1.21959 14.1824 1.04696 13.829 0.894786C13.7898 0.876054 13.7472 0.86544 13.7037 0.863578C13.6603 0.861715 13.6169 0.868643 13.5762 0.883948C13.5355 0.899253 13.4983 0.92262 13.4668 0.952645C13.4354 0.98267 13.4103 1.01874 13.3932 1.05868C13.376 1.09863 13.367 1.14163 13.3669 1.18512C13.3667 1.2286 13.3754 1.27167 13.3922 1.31174C13.4091 1.35181 13.4339 1.38805 13.4652 1.4183C13.4964 1.44855 13.5334 1.47219 13.574 1.48779C13.9044 1.62997 14.2263 1.79124 14.538 1.97079C14.5748 1.99464 14.6161 2.01075 14.6593 2.01813C14.7025 2.02552 14.7468 2.02403 14.7894 2.01376C14.832 2.00349 14.8721 1.98464 14.9072 1.95837C14.9423 1.93211 14.9717 1.89897 14.9936 1.86098C15.0155 1.82298 15.0294 1.78093 15.0345 1.73739C15.0396 1.69384 15.0358 1.64971 15.0233 1.60768C15.0108 1.56565 14.9899 1.52661 14.9618 1.49293C14.9338 1.45926 14.8991 1.43165 14.86 1.41179Z" fill="white"/>
<path d="M1.20401 13.1868C1.08068 12.8491 0.977173 12.5045 0.894012 12.1548C0.8714 12.0746 0.818671 12.0062 0.746841 11.964C0.675012 11.9218 0.589641 11.9089 0.508567 11.9282C0.427494 11.9474 0.35699 11.9972 0.311789 12.0672C0.266588 12.1372 0.250187 12.222 0.266012 12.3038C0.354914 12.6765 0.465434 13.0438 0.597012 13.4038C0.629505 13.4797 0.689871 13.5404 0.765693 13.5732C0.841515 13.606 0.927029 13.6085 1.00465 13.5802C1.08226 13.5519 1.14608 13.4949 1.18298 13.421C1.21988 13.3471 1.22705 13.2618 1.20301 13.1828L1.20401 13.1868Z" fill="white"/>
<path d="M8.55202 0.505647C8.53714 0.421322 8.48938 0.346355 8.41925 0.297226C8.34912 0.248096 8.26234 0.228824 8.17801 0.243647C7.79913 0.310741 7.4245 0.399893 7.05601 0.510647C7.01375 0.521379 6.97409 0.540556 6.93944 0.567024C6.90478 0.593492 6.87586 0.626702 6.85438 0.664653C6.83291 0.702604 6.81934 0.744511 6.8145 0.787846C6.80966 0.831181 6.81363 0.875047 6.8262 0.916802C6.83877 0.958556 6.85966 0.997334 6.88762 1.0308C6.91557 1.06426 6.95002 1.09172 6.98888 1.11151C7.02773 1.13131 7.07019 1.14303 7.11369 1.14598C7.1572 1.14892 7.20084 1.14303 7.242 1.12865C7.5862 1.02535 7.93613 0.942208 8.29001 0.879647C8.37433 0.864769 8.4493 0.817015 8.49843 0.746884C8.54756 0.676752 8.56684 0.589982 8.55202 0.505647Z" fill="white"/>
<path d="M19.508 9.66455C19.4223 9.66455 19.3402 9.69858 19.2796 9.75916C19.219 9.81973 19.185 9.90188 19.185 9.98755V10.0076C19.1849 10.3671 19.1642 10.7264 19.123 11.0836C19.1131 11.1685 19.1374 11.254 19.1905 11.3211C19.2435 11.3882 19.3211 11.4315 19.406 11.4415H19.443C19.5221 11.4413 19.5984 11.4121 19.6574 11.3594C19.7164 11.3067 19.754 11.2341 19.763 11.1555C19.807 10.7738 19.829 10.3898 19.829 10.0056V9.98555C19.8285 9.90058 19.7945 9.81924 19.7344 9.75916C19.6743 9.69907 19.593 9.66508 19.508 9.66455Z" fill="white"/>
<path d="M11.903 19.3997C11.8881 19.3154 11.8404 19.2404 11.7702 19.1913C11.7001 19.1421 11.6134 19.1229 11.529 19.1377C11.1747 19.1996 10.8171 19.241 10.458 19.2617C10.3753 19.268 10.2981 19.3059 10.2426 19.3675C10.187 19.4292 10.1574 19.5098 10.1597 19.5928C10.162 19.6757 10.1961 19.7546 10.255 19.813C10.3139 19.8715 10.3931 19.905 10.476 19.9067H10.495C10.8789 19.8845 11.2612 19.8401 11.64 19.7737C11.6819 19.7665 11.7219 19.751 11.7577 19.7283C11.7936 19.7056 11.8246 19.676 11.8491 19.6412C11.8735 19.6065 11.8908 19.5673 11.9001 19.5258C11.9093 19.4844 11.9103 19.4415 11.903 19.3997Z" fill="white"/>
<path d="M9.37999 19.2627C9.02092 19.2424 8.66333 19.2013 8.309 19.1397C8.26657 19.1308 8.22279 19.1305 8.18024 19.1389C8.1377 19.1472 8.09727 19.1641 8.06138 19.1884C8.02548 19.2127 7.99484 19.244 7.97129 19.2804C7.94774 19.3168 7.93176 19.3575 7.92431 19.4003C7.91685 19.443 7.91807 19.4868 7.92789 19.529C7.93772 19.5712 7.95594 19.611 7.98148 19.6461C8.00702 19.6811 8.03936 19.7107 8.07656 19.7329C8.11376 19.7552 8.15506 19.7697 8.198 19.7757C8.57681 19.8418 8.95912 19.8858 9.34301 19.9077H9.362C9.44496 19.9061 9.52409 19.8725 9.58298 19.814C9.64188 19.7556 9.67602 19.6767 9.67833 19.5938C9.68065 19.5109 9.65096 19.4302 9.59542 19.3686C9.53987 19.3069 9.46273 19.269 9.37999 19.2627Z" fill="white"/>
<path d="M7.26199 18.8898C6.91744 18.787 6.5792 18.6641 6.24899 18.5218C6.20963 18.5017 6.16655 18.4898 6.12242 18.487C6.07829 18.4842 6.03407 18.4905 5.99246 18.5054C5.95086 18.5204 5.91278 18.5438 5.88057 18.5741C5.84836 18.6044 5.82272 18.641 5.80522 18.6816C5.78773 18.7222 5.77876 18.7659 5.77887 18.8102C5.77898 18.8544 5.78817 18.8981 5.80586 18.9386C5.82356 18.9791 5.8494 19.0156 5.88176 19.0457C5.91412 19.0759 5.95233 19.099 5.994 19.1138C6.34736 19.2661 6.70931 19.3977 7.078 19.5078C7.1194 19.5229 7.16344 19.5294 7.20743 19.5268C7.25142 19.5243 7.29444 19.5128 7.33382 19.493C7.37319 19.4732 7.40809 19.4456 7.43639 19.4118C7.46468 19.378 7.48578 19.3388 7.49835 19.2966C7.51093 19.2543 7.51472 19.21 7.50951 19.1662C7.5043 19.1225 7.49019 19.0802 7.46805 19.0421C7.44591 19.004 7.41622 18.9708 7.38078 18.9447C7.34535 18.9185 7.30491 18.8998 7.26199 18.8898Z" fill="white"/>
<path d="M0.651002 7.4929C0.567731 7.47338 0.480119 7.48769 0.407382 7.53268C0.334646 7.57767 0.282723 7.64967 0.263001 7.73289C0.174382 8.10736 0.107603 8.48667 0.0630015 8.86889C0.0534377 8.95387 0.0779642 9.03918 0.131203 9.1061C0.184442 9.17303 0.262047 9.21611 0.347001 9.2259H0.384002C0.463109 9.22569 0.539387 9.19645 0.59837 9.14373C0.657353 9.09102 0.69494 9.01848 0.704002 8.93989C0.74502 8.5826 0.806791 8.22801 0.889001 7.87789C0.907692 7.79533 0.893226 7.70873 0.848716 7.63673C0.804205 7.56473 0.733208 7.51309 0.651002 7.4929Z" fill="white"/>
<path d="M14.015 18.6846C13.981 18.6062 13.9172 18.5444 13.8377 18.5129C13.7583 18.4814 13.6696 18.4828 13.591 18.5166C13.2612 18.6591 12.9232 18.7823 12.579 18.8856C12.5364 18.8959 12.4963 18.9148 12.4613 18.9411C12.4262 18.9675 12.3968 19.0007 12.375 19.0387C12.3532 19.0767 12.3393 19.1188 12.3343 19.1624C12.3293 19.206 12.3332 19.2501 12.3457 19.2921C12.3583 19.3341 12.3793 19.3731 12.4074 19.4068C12.4356 19.4404 12.4703 19.4679 12.5094 19.4877C12.5486 19.5075 12.5913 19.5191 12.6351 19.5219C12.6789 19.5246 12.7227 19.5184 12.764 19.5036C13.1324 19.3931 13.494 19.2612 13.847 19.1086C13.9254 19.0745 13.9872 19.0108 14.0186 18.9313C14.0501 18.8518 14.0488 18.7631 14.015 18.6846Z" fill="white"/>
<path d="M0.708 11.0948C0.66645 10.7376 0.645416 10.3784 0.645 10.0188C0.644735 9.93329 0.610588 9.85139 0.550043 9.79103C0.489497 9.73067 0.407492 9.69678 0.322 9.69678C0.236508 9.69704 0.154609 9.7312 0.0942507 9.79175C0.0338925 9.85229 -4.0972e-07 9.9343 0 10.0198C0.00034086 10.4041 0.0227109 10.788 0.067 11.1698C0.0762885 11.2482 0.113973 11.3205 0.172934 11.373C0.231894 11.4255 0.308046 11.4546 0.387 11.4548H0.425C0.467262 11.4498 0.508128 11.4366 0.545251 11.4158C0.582374 11.395 0.615022 11.3671 0.641319 11.3336C0.667616 11.3002 0.687045 11.2618 0.698488 11.2208C0.709931 11.1799 0.713164 11.137 0.708 11.0948Z" fill="white"/>
<path d="M5.15599 4.63662C5.14365 4.60044 5.1243 4.56705 5.09905 4.53834C5.0738 4.50964 5.04314 4.4862 5.00883 4.46934C4.97452 4.45249 4.93723 4.44256 4.89908 4.44012C4.86093 4.43768 4.82267 4.44277 4.78649 4.45512C4.75031 4.46746 4.71692 4.48681 4.68822 4.51206C4.65952 4.53731 4.63607 4.56797 4.61922 4.60228C4.60236 4.63659 4.59243 4.67389 4.58999 4.71204C4.58755 4.75018 4.59265 4.78844 4.60499 4.82462C4.66693 5.00688 4.69835 5.19812 4.69799 5.39062V6.16762C4.69799 6.19414 4.68746 6.21958 4.6687 6.23833C4.64995 6.25708 4.62451 6.26762 4.59799 6.26762H0.867993C0.841471 6.26762 0.816036 6.25708 0.797282 6.23833C0.778529 6.21958 0.767993 6.19414 0.767993 6.16762V5.39562C0.768303 5.14929 0.820462 4.90579 0.92108 4.68095C1.0217 4.45611 1.16852 4.25497 1.35199 4.09062C1.60782 4.42993 1.98145 4.66113 2.39927 4.73866C2.81708 4.81619 3.24878 4.73442 3.60931 4.50947C3.96984 4.28452 4.23304 3.93271 4.34707 3.52334C4.46109 3.11398 4.41767 2.67676 4.22535 2.29782C4.03303 1.91888 3.70577 1.62571 3.30804 1.47607C2.91031 1.32644 2.47096 1.33118 2.07655 1.48938C1.68215 1.64757 1.36129 1.94774 1.17721 2.33075C0.993119 2.71375 0.95915 3.15181 1.08199 3.55862C0.802197 3.77638 0.575592 4.05493 0.419322 4.37318C0.263053 4.69144 0.181213 5.04107 0.179993 5.39562V6.17262C0.179993 6.35456 0.252268 6.52905 0.380918 6.65769C0.509567 6.78634 0.684054 6.85862 0.865993 6.85862H4.59499C4.77693 6.85862 4.95142 6.78634 5.08007 6.65769C5.20872 6.52905 5.28099 6.35456 5.28099 6.17262V5.39562C5.28163 5.13744 5.23939 4.88095 5.15599 4.63662ZM2.71199 1.93662C2.9345 1.93662 3.152 2.0026 3.33701 2.12622C3.52201 2.24983 3.66621 2.42553 3.75136 2.6311C3.83651 2.83667 3.85878 3.06287 3.81538 3.2811C3.77197 3.49933 3.66482 3.69978 3.50749 3.85711C3.35015 4.01445 3.1497 4.12159 2.93147 4.165C2.71324 4.20841 2.48704 4.18613 2.28147 4.10098C2.07591 4.01583 1.90021 3.87164 1.77659 3.68663C1.65297 3.50163 1.58699 3.28412 1.58699 3.06162C1.58699 2.76316 1.70549 2.47691 1.91644 2.26577C2.12739 2.05463 2.41353 1.93588 2.71199 1.93562V1.93662Z" fill="white"/>
<path d="M19.524 4.63664C19.4991 4.56357 19.4461 4.5034 19.3768 4.46937C19.3075 4.43533 19.2275 4.43021 19.1545 4.45514C19.0814 4.48007 19.0212 4.53301 18.9872 4.6023C18.9531 4.6716 18.948 4.75157 18.973 4.82464C19.0349 5.00691 19.0663 5.19815 19.066 5.39064V6.16764C19.066 6.18078 19.0634 6.19378 19.0583 6.20591C19.0533 6.21804 19.046 6.22907 19.0367 6.23835C19.0274 6.24764 19.0164 6.255 19.0042 6.26003C18.9921 6.26505 18.9791 6.26764 18.966 6.26764H15.239C15.2259 6.26764 15.2128 6.26505 15.2007 6.26003C15.1886 6.255 15.1776 6.24764 15.1683 6.23835C15.159 6.22907 15.1516 6.21804 15.1466 6.20591C15.1416 6.19378 15.139 6.18078 15.139 6.16764V5.39464C15.1393 5.14832 15.1914 4.90481 15.2921 4.67998C15.3927 4.45514 15.5395 4.254 15.723 4.08964C15.9788 4.42895 16.3524 4.66015 16.7702 4.73768C17.188 4.81521 17.6198 4.73344 17.9803 4.50849C18.3408 4.28355 18.604 3.93173 18.718 3.52237C18.8321 3.113 18.7887 2.67578 18.5963 2.29684C18.404 1.91791 18.0767 1.62473 17.679 1.4751C17.2813 1.32546 16.8419 1.3302 16.4475 1.4884C16.0531 1.64659 15.7323 1.94677 15.5482 2.32977C15.3641 2.71278 15.3301 3.15084 15.453 3.55764C15.1734 3.77571 14.9471 4.05451 14.7912 4.37294C14.6353 4.69137 14.5538 5.04109 14.553 5.39564V6.17264C14.553 6.35458 14.6253 6.52907 14.7539 6.65772C14.8826 6.78637 15.057 6.85864 15.239 6.85864H18.966C19.1479 6.85864 19.3224 6.78637 19.451 6.65772C19.5797 6.52907 19.652 6.35458 19.652 6.17264V5.39464C19.6515 5.13663 19.6083 4.88049 19.524 4.63664ZM17.08 1.93664C17.3025 1.93664 17.52 2.00262 17.705 2.12624C17.89 2.24986 18.0342 2.42555 18.1193 2.63112C18.2045 2.83669 18.2268 3.06289 18.1833 3.28112C18.1399 3.49935 18.0328 3.6998 17.8755 3.85714C17.7181 4.01447 17.5177 4.12162 17.2994 4.16503C17.0812 4.20844 16.855 4.18615 16.6494 4.101C16.4439 4.01586 16.2682 3.87167 16.1446 3.68666C16.0209 3.50165 15.955 3.28414 15.955 3.06164C15.955 2.76318 16.0735 2.47693 16.2844 2.26579C16.4954 2.05465 16.7815 1.93591 17.08 1.93564V1.93664Z" fill="white"/>
<path d="M19.524 16.4449C19.4991 16.3718 19.4461 16.3116 19.3768 16.2776C19.3075 16.2435 19.2275 16.2384 19.1545 16.2633C19.0814 16.2883 19.0213 16.3412 18.9872 16.4105C18.9532 16.4798 18.9481 16.5598 18.973 16.6328C19.0349 16.8151 19.0663 17.0064 19.066 17.1988V17.9759C19.066 17.989 19.0634 18.002 19.0584 18.0141C19.0534 18.0263 19.046 18.0373 19.0367 18.0466C19.0274 18.0559 19.0164 18.0632 19.0042 18.0682C18.9921 18.0733 18.9791 18.0758 18.966 18.0758H15.239C15.2125 18.0758 15.187 18.0653 15.1683 18.0466C15.1495 18.0278 15.139 18.0024 15.139 17.9759V17.1988C15.1393 16.9525 15.1914 16.709 15.2921 16.4842C15.3927 16.2594 15.5395 16.0582 15.723 15.8939C15.9788 16.2332 16.3524 16.4644 16.7703 16.5419C17.1881 16.6194 17.6198 16.5377 17.9803 16.3127C18.3408 16.0878 18.604 15.7359 18.718 15.3266C18.8321 14.9172 18.7887 14.48 18.5963 14.101C18.404 13.7221 18.0767 13.4289 17.679 13.2793C17.2813 13.1297 16.8419 13.1344 16.4475 13.2926C16.0531 13.4508 15.7323 13.751 15.5482 14.134C15.3641 14.517 15.3301 14.955 15.453 15.3618C15.1734 15.5799 14.9471 15.8587 14.7912 16.1772C14.6353 16.4956 14.5538 16.8453 14.553 17.1999V17.9768C14.553 18.1588 14.6253 18.3333 14.7539 18.4619C14.8826 18.5906 15.057 18.6628 15.239 18.6628H18.966C19.1479 18.6628 19.3224 18.5906 19.451 18.4619C19.5797 18.3333 19.652 18.1588 19.652 17.9768V17.1999C19.6512 16.9429 19.608 16.6877 19.524 16.4449ZM17.08 13.7448C17.3025 13.7448 17.52 13.8108 17.705 13.9344C17.89 14.0581 18.0342 14.2338 18.1194 14.4393C18.2045 14.6449 18.2268 14.8711 18.1833 15.0893C18.1399 15.3076 18.0328 15.508 17.8755 15.6653C17.7182 15.8227 17.5177 15.9298 17.2995 15.9732C17.0812 16.0166 16.855 15.9944 16.6495 15.9092C16.4439 15.8241 16.2682 15.6799 16.1446 15.4949C16.0209 15.3099 15.955 15.0923 15.955 14.8698C15.955 14.5714 16.0735 14.2851 16.2844 14.074C16.4954 13.8629 16.7815 13.7441 17.08 13.7439V13.7448Z" fill="white"/>
<path d="M5.15601 16.4449C5.14366 16.4087 5.12431 16.3753 5.09906 16.3466C5.07381 16.3179 5.04316 16.2944 5.00885 16.2776C4.97454 16.2607 4.93724 16.2508 4.89909 16.2483C4.86094 16.2459 4.82269 16.251 4.78651 16.2633C4.75033 16.2757 4.71693 16.295 4.68823 16.3203C4.65953 16.3455 4.63608 16.3762 4.61923 16.4105C4.60238 16.4448 4.59245 16.4821 4.59001 16.5203C4.58756 16.5584 4.59266 16.5967 4.60501 16.6328C4.66694 16.8151 4.69837 17.0064 4.69801 17.1988V17.9759C4.69801 18.0024 4.68747 18.0278 4.66872 18.0466C4.64996 18.0653 4.62453 18.0758 4.59801 18.0758H0.868007C0.841485 18.0758 0.81605 18.0653 0.797296 18.0466C0.778542 18.0278 0.768007 18.0024 0.768007 17.9759V17.1988C0.768316 16.9525 0.820476 16.709 0.921093 16.4842C1.02171 16.2594 1.16853 16.0582 1.35201 15.8939C1.60783 16.2332 1.98146 16.4644 2.39928 16.5419C2.8171 16.6194 3.2488 16.5377 3.60932 16.3127C3.96985 16.0878 4.23306 15.7359 4.34708 15.3266C4.46111 14.9172 4.41768 14.48 4.22537 14.101C4.03305 13.7221 3.70578 13.4289 3.30805 13.2793C2.91032 13.1297 2.47097 13.1344 2.07657 13.2926C1.68216 13.4508 1.36131 13.751 1.17722 14.134C0.993133 14.517 0.959164 14.955 1.08201 15.3618C0.802445 15.5799 0.576142 15.8587 0.420219 16.1772C0.264296 16.4956 0.182838 16.8453 0.182007 17.1999V17.9768C0.182007 18.1588 0.254281 18.3333 0.382931 18.4619C0.511581 18.5906 0.686068 18.6628 0.868007 18.6628H4.59501C4.77695 18.6628 4.95143 18.5906 5.08008 18.4619C5.20873 18.3333 5.28101 18.1588 5.28101 17.9768V17.1999C5.28122 16.943 5.23898 16.6879 5.15601 16.4449ZM2.71201 13.7448C2.93451 13.7448 3.15202 13.8108 3.33702 13.9344C3.52203 14.0581 3.66622 14.2338 3.75137 14.4393C3.83652 14.6449 3.8588 14.8711 3.81539 15.0893C3.77198 15.3076 3.66484 15.508 3.5075 15.6653C3.35017 15.8227 3.14971 15.9298 2.93148 15.9732C2.71325 16.0166 2.48705 15.9944 2.28149 15.9092C2.07592 15.8241 1.90022 15.6799 1.7766 15.4949C1.65299 15.3099 1.58701 15.0923 1.58701 14.8698C1.58701 14.5714 1.7055 14.2851 1.91645 14.074C2.1274 13.8629 2.41355 13.7441 2.71201 13.7439V13.7448Z" fill="white"/>
<path d="M12.668 6.7916H9.56803C8.92867 6.79173 8.3101 7.01876 7.82245 7.43225C7.33479 7.84574 7.00969 8.41887 6.90503 9.04961H6.79903C6.21057 9.05882 5.64975 9.30091 5.23945 9.72284C4.82914 10.1448 4.60281 10.7121 4.61003 11.3006C4.60636 11.7217 4.72102 12.1353 4.94096 12.4944C5.16089 12.8535 5.47726 13.1436 5.85403 13.3316C6.20199 13.9623 6.76747 14.445 7.44503 14.6896C7.49893 14.7094 7.55748 14.7128 7.61331 14.6994C7.66914 14.6859 7.71975 14.6563 7.75877 14.6142C7.79779 14.5721 7.82348 14.5193 7.8326 14.4626C7.84172 14.406 7.83387 14.3478 7.81003 14.2956C7.6982 14.062 7.63041 13.8098 7.61003 13.5516H9.23703C9.66905 13.5482 10.0904 13.4171 10.4482 13.175C10.806 12.9329 11.0843 12.5904 11.248 12.1906H11.711C11.6947 12.5381 11.6069 12.8785 11.453 13.1906C11.4281 13.2426 11.4192 13.3008 11.4274 13.3579C11.4356 13.4149 11.4605 13.4683 11.4991 13.5111C11.5377 13.554 11.5881 13.5844 11.644 13.5986C11.6999 13.6127 11.7587 13.6099 11.813 13.5906C12.6544 13.3006 13.3605 12.7126 13.798 11.9376C14.3562 11.6791 14.8095 11.2377 15.0826 10.6864C15.3558 10.1352 15.4325 9.50726 15.3001 8.90649C15.1677 8.30573 14.8341 7.7682 14.3545 7.38287C13.875 6.99755 13.2782 6.78752 12.663 6.7876L12.668 6.7916ZM13.468 11.4546C13.4291 11.4701 13.394 11.494 13.3653 11.5246C13.3366 11.5552 13.315 11.5917 13.302 11.6316C13.0892 12.1216 12.7098 12.5205 12.231 12.7576C12.301 12.4671 12.3206 12.1667 12.289 11.8696C12.2812 11.7983 12.2474 11.7325 12.1941 11.6845C12.1408 11.6366 12.0717 11.6099 12 11.6096H9.57603C9.30563 11.6099 9.03773 11.5579 8.78703 11.4566C8.73429 11.4351 8.67638 11.4296 8.62054 11.4408C8.5647 11.452 8.5134 11.4794 8.47303 11.5196C8.43944 11.5536 8.41482 11.5955 8.40137 11.6414C8.38793 11.6872 8.38608 11.7357 8.39599 11.7825C8.4059 11.8293 8.42726 11.8729 8.45816 11.9094C8.48906 11.9459 8.52852 11.9741 8.57303 11.9916C8.89362 12.1229 9.23661 12.1908 9.58303 12.1916H10.613C10.4727 12.4275 10.2739 12.6231 10.0358 12.7596C9.79773 12.896 9.52845 12.9687 9.25403 12.9706H7.34403C7.27268 12.9704 7.20375 12.9965 7.15044 13.0439C7.09712 13.0913 7.06315 13.1567 7.05503 13.2276C7.03323 13.4312 7.03996 13.6369 7.07503 13.8386C6.75978 13.6565 6.51366 13.3752 6.37503 13.0386C6.36246 12.9971 6.34101 12.9587 6.31218 12.9263C6.28335 12.8938 6.24781 12.868 6.20803 12.8506C5.90626 12.7207 5.64969 12.5044 5.47066 12.2289C5.29164 11.9534 5.19816 11.6311 5.20203 11.3026C5.19452 10.8684 5.35946 10.4489 5.66067 10.1361C5.96189 9.82322 6.37484 9.64254 6.80903 9.63361H6.88203C6.89723 9.93054 6.96178 10.2229 7.07303 10.4986C7.09051 10.5431 7.11877 10.5826 7.15526 10.6135C7.19175 10.6444 7.23533 10.6657 7.28211 10.6756C7.32889 10.6856 7.37739 10.6837 7.42328 10.6703C7.46916 10.6568 7.511 10.6322 7.54503 10.5986C7.58492 10.5585 7.61215 10.5075 7.62335 10.4521C7.63455 10.3966 7.62923 10.3391 7.60803 10.2866C7.50154 10.0218 7.45016 9.73798 7.45703 9.45261C7.47423 8.89562 7.70832 8.36739 8.10939 7.98051C8.51046 7.59364 9.04678 7.37873 9.60403 7.38161H12.636C13.2022 7.38156 13.7456 7.60454 14.1486 8.00227C14.5516 8.4 14.7817 8.94046 14.789 9.50661C14.7869 9.92626 14.6597 10.3358 14.4237 10.6828C14.1877 11.0298 13.8536 11.2985 13.464 11.4546H13.468Z" fill="white"/>
</svg>
