<svg width="56" height="37" viewBox="0 0 56 37" fill="none" xmlns="http://www.w3.org/2000/svg">
<path d="M36 18.5C36 28.4411 27.9411 36.5 18 36.5C8.05888 36.5 0 28.4411 0 18.5C0 8.55888 8.05888 0.5 18 0.5C27.9411 0.5 36 8.55888 36 18.5Z" fill="#161429"/>
<path fill-rule="evenodd" clip-rule="evenodd" d="M18 34.34C26.7482 34.34 33.84 27.2482 33.84 18.5C33.84 9.75181 26.7482 2.66 18 2.66C9.25181 2.66 2.16 9.75181 2.16 18.5C2.16 27.2482 9.25181 34.34 18 34.34ZM18 36.5C27.9411 36.5 36 28.4411 36 18.5C36 8.55888 27.9411 0.5 18 0.5C8.05888 0.5 0 8.55888 0 18.5C0 28.4411 8.05888 36.5 18 36.5Z" fill="#FFC768"/>
<g clip-path="url(#clip0_799_2589)">
<path d="M30.469 19.3662C30.3498 19.4349 30.2143 19.4713 30.0763 19.4718C29.9373 19.4722 29.8007 19.4367 29.6801 19.3687C29.5595 19.3007 29.4591 19.2027 29.389 19.0844L25.5913 12.647C25.4867 12.4701 25.3369 12.3234 25.1569 12.2214C24.9768 12.1195 24.7729 12.0658 24.5653 12.0658L13.8429 12.0871C13.8198 12.0882 13.7967 12.0862 13.7742 12.0813L11.1527 16.5466C11.0434 16.7185 10.8708 16.8418 10.6712 16.8907C10.4716 16.9396 10.2605 16.9102 10.0824 16.8087C9.90435 16.7072 9.77313 16.5414 9.71638 16.3464C9.65963 16.1514 9.68178 15.9422 9.77815 15.763L13.5474 9.3198C13.7922 8.90365 14.1433 8.5581 14.5657 8.31761C14.9881 8.07712 15.4671 7.9501 15.9548 7.94922H23.4981C23.7087 7.94922 23.9108 8.03178 24.0597 8.17873C24.2087 8.32569 24.2924 8.525 24.2924 8.73282C24.2924 8.94065 24.2087 9.13996 24.0597 9.28692C23.9108 9.43387 23.7087 9.51643 23.4981 9.51643H15.9538C15.7451 9.51651 15.5402 9.5708 15.3596 9.67384C15.1789 9.77689 15.029 9.92504 14.9248 10.1034L14.6853 10.5141L24.5575 10.4957H24.5653C25.052 10.4972 25.5298 10.6244 25.9511 10.8647C26.3724 11.105 26.7226 11.45 26.9668 11.8653L30.7557 18.2979C30.861 18.4771 30.8899 18.6902 30.8361 18.8905C30.7824 19.0908 30.6504 19.2618 30.469 19.3662Z" fill="#FFC768"/>
<path d="M19.6994 25.91C19.6986 26.1173 19.6146 26.3159 19.4657 26.4622C19.3169 26.6085 19.1153 26.6907 18.9051 26.6907L13.3971 26.6752L11.3599 26.6704C10.8727 26.6677 10.3948 26.5393 9.9735 26.298C9.55221 26.0568 9.20223 25.7109 8.95833 25.2949L5.20484 18.8391C5.11365 18.6603 5.0953 18.4538 5.15355 18.262C5.21181 18.0703 5.34225 17.9078 5.51811 17.8079C5.69397 17.708 5.90191 17.6783 6.09926 17.7249C6.29661 17.7715 6.4684 17.8908 6.57938 18.0584L10.3309 24.5152C10.4347 24.694 10.5845 24.8426 10.7652 24.946C10.9459 25.0494 11.151 25.1039 11.3599 25.1041H11.9912L7.39626 17.454C7.15053 17.0375 7.01994 16.5647 7.01753 16.0828C7.01511 15.601 7.14097 15.1269 7.38251 14.708L11.1272 8.24933C11.1736 8.15112 11.2402 8.06346 11.3227 7.99192C11.4052 7.92037 11.5018 7.86649 11.6065 7.83367C11.7112 7.80085 11.8216 7.78981 11.9309 7.80125C12.0401 7.81269 12.1458 7.84635 12.2411 7.90012C12.3365 7.95389 12.4195 8.02658 12.485 8.11362C12.5504 8.20066 12.5969 8.30014 12.6213 8.40578C12.6458 8.51142 12.6478 8.62093 12.6273 8.72738C12.6067 8.83382 12.5639 8.9349 12.5017 9.02422L8.75607 15.4868C8.65281 15.6657 8.59899 15.8682 8.60003 16.0741C8.60106 16.2799 8.65691 16.4819 8.76197 16.6598L13.8478 25.1099L18.9051 25.1235C19.1159 25.1248 19.3176 25.2081 19.4664 25.3554C19.6152 25.5027 19.6989 25.7021 19.6994 25.91Z" fill="#FFC768"/>
<path d="M28.2761 22.2855L24.499 28.7267C24.4284 28.8446 24.3279 28.9423 24.2074 29.0103C24.0869 29.0782 23.9505 29.114 23.8117 29.1142C23.6737 29.1136 23.5382 29.0772 23.419 29.0086C23.2371 28.9055 23.104 28.7355 23.0487 28.5358C22.9935 28.3362 23.0208 28.123 23.1245 27.9431L26.9045 21.5019C27.0082 21.3233 27.0628 21.1211 27.0628 20.9154C27.0628 20.7096 27.0082 20.5074 26.9045 20.3289L26.4833 19.6063L21.6331 27.8986C21.3891 28.3143 21.0388 28.6596 20.6172 28.8999C20.1956 29.1402 19.7175 29.2672 19.2306 29.2682L11.6863 29.2769C11.4803 29.2697 11.2852 29.184 11.1421 29.0377C10.9989 28.8915 10.9189 28.6961 10.9189 28.4928C10.9189 28.2895 10.9989 28.0941 11.1421 27.9479C11.2852 27.8016 11.4803 27.7159 11.6863 27.7087L19.2306 27.701C19.4391 27.7011 19.6441 27.647 19.8247 27.5441C20.0053 27.4412 20.1553 27.2932 20.2595 27.1149L25.5613 18.0565C25.5672 18.0488 25.5702 18.041 25.5751 18.0352L23.149 13.877C23.0578 13.6981 23.0395 13.4916 23.0977 13.2999C23.156 13.1081 23.2864 12.9456 23.4623 12.8457C23.6381 12.7458 23.8461 12.7161 24.0434 12.7627C24.2408 12.8093 24.4126 12.9287 24.5236 13.0963L28.2878 19.5453C28.5292 19.9631 28.6551 20.436 28.653 20.9169C28.6509 21.3978 28.521 21.8697 28.2761 22.2855Z" fill="#FFC768"/>
</g>
<circle cx="38" cy="18.5" r="18" fill="#FFC768"/>
<g clip-path="url(#clip1_799_2589)">
<path d="M50.469 19.3662C50.3498 19.4349 50.2143 19.4713 50.0763 19.4718C49.9373 19.4722 49.8007 19.4367 49.6801 19.3687C49.5595 19.3007 49.4591 19.2027 49.389 19.0844L45.5913 12.647C45.4867 12.4701 45.3369 12.3234 45.1569 12.2214C44.9768 12.1195 44.7729 12.0658 44.5653 12.0658L33.8429 12.0871C33.8198 12.0882 33.7967 12.0862 33.7742 12.0813L31.1527 16.5466C31.0434 16.7185 30.8708 16.8418 30.6712 16.8907C30.4716 16.9396 30.2605 16.9102 30.0824 16.8087C29.9044 16.7072 29.7731 16.5414 29.7164 16.3464C29.6596 16.1514 29.6818 15.9422 29.7782 15.763L33.5474 9.3198C33.7922 8.90365 34.1433 8.5581 34.5657 8.31761C34.9881 8.07712 35.4671 7.9501 35.9548 7.94922H43.4981C43.7087 7.94922 43.9108 8.03178 44.0597 8.17873C44.2087 8.32569 44.2924 8.525 44.2924 8.73282C44.2924 8.94065 44.2087 9.13996 44.0597 9.28692C43.9108 9.43387 43.7087 9.51643 43.4981 9.51643H35.9538C35.7451 9.51651 35.5402 9.5708 35.3596 9.67384C35.1789 9.77689 35.029 9.92504 34.9248 10.1034L34.6853 10.5141L44.5575 10.4957H44.5653C45.052 10.4972 45.5298 10.6244 45.9511 10.8647C46.3724 11.105 46.7226 11.45 46.9668 11.8653L50.7557 18.2979C50.861 18.4771 50.8899 18.6902 50.8361 18.8905C50.7824 19.0908 50.6504 19.2618 50.469 19.3662Z" fill="#161429"/>
<path d="M39.6994 25.91C39.6986 26.1173 39.6146 26.3159 39.4657 26.4622C39.3169 26.6085 39.1153 26.6907 38.9051 26.6907L33.3971 26.6752L31.3599 26.6704C30.8727 26.6677 30.3948 26.5393 29.9735 26.298C29.5522 26.0568 29.2022 25.7109 28.9583 25.2949L25.2048 18.8391C25.1136 18.6603 25.0953 18.4538 25.1536 18.262C25.2118 18.0703 25.3422 17.9078 25.5181 17.8079C25.694 17.708 25.9019 17.6783 26.0993 17.7249C26.2966 17.7715 26.4684 17.8908 26.5794 18.0584L30.3309 24.5152C30.4347 24.694 30.5845 24.8426 30.7652 24.946C30.9459 25.0494 31.151 25.1039 31.3599 25.1041H31.9912L27.3963 17.454C27.1505 17.0375 27.0199 16.5647 27.0175 16.0828C27.0151 15.601 27.141 15.1269 27.3825 14.708L31.1272 8.24933C31.1736 8.15112 31.2402 8.06346 31.3227 7.99192C31.4052 7.92037 31.5018 7.86649 31.6065 7.83367C31.7112 7.80085 31.8216 7.78981 31.9309 7.80125C32.0401 7.81269 32.1458 7.84635 32.2411 7.90012C32.3365 7.95389 32.4195 8.02658 32.485 8.11362C32.5504 8.20066 32.5969 8.30014 32.6213 8.40578C32.6458 8.51142 32.6478 8.62093 32.6273 8.72738C32.6067 8.83382 32.5639 8.9349 32.5017 9.02422L28.7561 15.4868C28.6528 15.6657 28.599 15.8682 28.6 16.0741C28.6011 16.2799 28.6569 16.4819 28.762 16.6598L33.8478 25.1099L38.9051 25.1235C39.1159 25.1248 39.3176 25.2081 39.4664 25.3554C39.6152 25.5027 39.6989 25.7021 39.6994 25.91Z" fill="#161429"/>
<path d="M48.2761 22.2855L44.499 28.7267C44.4284 28.8446 44.3279 28.9423 44.2074 29.0103C44.0869 29.0782 43.9505 29.114 43.8117 29.1142C43.6737 29.1136 43.5382 29.0772 43.419 29.0086C43.2371 28.9055 43.104 28.7355 43.0487 28.5358C42.9935 28.3362 43.0208 28.123 43.1245 27.9431L46.9045 21.5019C47.0082 21.3233 47.0628 21.1211 47.0628 20.9154C47.0628 20.7096 47.0082 20.5074 46.9045 20.3289L46.4833 19.6063L41.6331 27.8986C41.3891 28.3143 41.0388 28.6596 40.6172 28.8999C40.1956 29.1402 39.7175 29.2672 39.2306 29.2682L31.6863 29.2769C31.4803 29.2697 31.2852 29.184 31.1421 29.0377C30.9989 28.8915 30.9189 28.6961 30.9189 28.4928C30.9189 28.2895 30.9989 28.0941 31.1421 27.9479C31.2852 27.8016 31.4803 27.7159 31.6863 27.7087L39.2306 27.701C39.4391 27.7011 39.6441 27.647 39.8247 27.5441C40.0053 27.4412 40.1553 27.2932 40.2595 27.1149L45.5613 18.0565C45.5672 18.0488 45.5702 18.041 45.5751 18.0352L43.149 13.877C43.0578 13.6981 43.0395 13.4916 43.0977 13.2999C43.156 13.1081 43.2864 12.9456 43.4623 12.8457C43.6381 12.7458 43.8461 12.7161 44.0434 12.7627C44.2408 12.8093 44.4126 12.9287 44.5236 13.0963L48.2878 19.5453C48.5292 19.9631 48.6551 20.436 48.653 20.9169C48.6509 21.3978 48.521 21.8697 48.2761 22.2855Z" fill="#161429"/>
</g>
<defs>
<clipPath id="clip0_799_2589">
<rect width="25.92" height="21.6" fill="white" transform="translate(5.04004 7.7002)"/>
</clipPath>
<clipPath id="clip1_799_2589">
<rect width="25.92" height="21.6" fill="white" transform="translate(25.04 7.7002)"/>
</clipPath>
</defs>
</svg>
