<svg width="50" height="50" viewBox="0 0 50 50" fill="none" xmlns="http://www.w3.org/2000/svg">
<path d="M50 25C50 38.8071 38.8071 50 25 50C11.1929 50 0 38.8071 0 25C0 11.1929 11.1929 0 25 0C38.8071 0 50 11.1929 50 25Z" fill="#161429"/>
<path fill-rule="evenodd" clip-rule="evenodd" d="M25 47C37.1503 47 47 37.1503 47 25C47 12.8497 37.1503 3 25 3C12.8497 3 3 12.8497 3 25C3 37.1503 12.8497 47 25 47ZM25 50C38.8071 50 50 38.8071 50 25C50 11.1929 38.8071 0 25 0C11.1929 0 0 11.1929 0 25C0 38.8071 11.1929 50 25 50Z" fill="#FFC768"/>
<path d="M42.3182 26.2027C42.1526 26.298 41.9644 26.3486 41.7727 26.3494C41.5798 26.35 41.3901 26.3006 41.2225 26.2061C41.055 26.1117 40.9156 25.9755 40.8182 25.8112L35.5436 16.8704C35.3983 16.6248 35.1902 16.421 34.9402 16.2794C34.6902 16.1378 34.4069 16.0633 34.1186 16.0633L19.2264 16.0929C19.1943 16.0943 19.1622 16.0916 19.1309 16.0848L15.49 22.2866C15.3382 22.5253 15.0985 22.6966 14.8212 22.7645C14.544 22.8324 14.2508 22.7916 14.0035 22.6506C13.7562 22.5096 13.5739 22.2794 13.4951 22.0085C13.4163 21.7377 13.447 21.4472 13.5809 21.1982L18.8159 12.2494C19.1559 11.6714 19.6436 11.1914 20.2303 10.8574C20.817 10.5234 21.4822 10.347 22.1595 10.3458H32.6364C32.9289 10.3458 33.2095 10.4604 33.4164 10.6645C33.6233 10.8686 33.7395 11.1455 33.7395 11.4341C33.7395 11.7228 33.6233 11.9996 33.4164 12.2037C33.2095 12.4078 32.9289 12.5224 32.6364 12.5224H22.1582C21.8684 12.5226 21.5837 12.598 21.3329 12.7411C21.082 12.8842 20.8737 13.09 20.7291 13.3377L20.3964 13.9081L34.1077 13.8825H34.1186C34.7946 13.8846 35.4582 14.0613 36.0433 14.3951C36.6285 14.7288 37.1149 15.208 37.4541 15.7848L42.7163 24.7189C42.8626 24.9678 42.9028 25.2638 42.8281 25.542C42.7535 25.8201 42.5701 26.0577 42.3182 26.2027V26.2027Z" fill="#FFC768"/>
<path d="M27.3605 35.2915C27.3594 35.5794 27.2427 35.8552 27.0359 36.0584C26.8291 36.2617 26.5492 36.3758 26.2573 36.3758L18.6073 36.3542L15.7777 36.3475C15.1012 36.3438 14.4374 36.1655 13.8522 35.8304C13.2671 35.4953 12.781 35.015 12.4423 34.4372L7.2291 25.4708C7.10245 25.2224 7.07696 24.9356 7.15787 24.6693C7.23878 24.403 7.41995 24.1773 7.6642 24.0385C7.90845 23.8998 8.19726 23.8586 8.47136 23.9233C8.74545 23.988 8.98406 24.1537 9.13819 24.3865L14.3486 33.3542C14.4929 33.6026 14.7009 33.8089 14.9518 33.9526C15.2028 34.0962 15.4876 34.1719 15.7777 34.1722H16.6546L10.2727 23.5471C9.93146 22.9686 9.75008 22.3119 9.74673 21.6426C9.74337 20.9733 9.91817 20.3149 10.2536 19.7332L15.4546 10.7628C15.519 10.6263 15.6115 10.5046 15.7261 10.4052C15.8407 10.3059 15.9749 10.231 16.1203 10.1854C16.2657 10.1399 16.4191 10.1245 16.5708 10.1404C16.7225 10.1563 16.8693 10.2031 17.0017 10.2777C17.1342 10.3524 17.2495 10.4534 17.3404 10.5743C17.4313 10.6951 17.4958 10.8333 17.5298 10.98C17.5638 11.1268 17.5666 11.2789 17.538 11.4267C17.5094 11.5745 17.45 11.7149 17.3636 11.839L12.1614 20.8148C12.0179 21.0632 11.9432 21.3445 11.9446 21.6304C11.9461 21.9163 12.0236 22.1969 12.1696 22.4439L19.2332 34.1802L26.2573 34.1991C26.55 34.2009 26.8302 34.3166 27.0368 34.5212C27.2434 34.7258 27.3598 35.0027 27.3605 35.2915V35.2915Z" fill="#FFC768"/>
<path d="M39.2718 30.2574L34.0259 39.2036C33.9279 39.3674 33.7883 39.5031 33.6209 39.5975C33.4535 39.6918 33.2641 39.7415 33.0714 39.7417C32.8796 39.741 32.6915 39.6904 32.5259 39.5951C32.2732 39.4519 32.0883 39.2158 32.0117 38.9385C31.935 38.6612 31.9728 38.3652 32.1168 38.1153L37.3668 29.1691C37.5109 28.9212 37.5868 28.6403 37.5868 28.3545C37.5868 28.0687 37.5109 27.7879 37.3668 27.5399L36.7818 26.5364L30.0454 38.0534C29.7066 38.6308 29.2201 39.1103 28.6345 39.4441C28.049 39.7779 27.3849 39.9543 26.7086 39.9556L16.2304 39.9677C15.9444 39.9578 15.6734 39.8387 15.4746 39.6356C15.2758 39.4324 15.1647 39.1611 15.1647 38.8787C15.1647 38.5964 15.2758 38.325 15.4746 38.1219C15.6734 37.9187 15.9444 37.7996 16.2304 37.7897L26.7086 37.779C26.9983 37.7791 27.2829 37.704 27.5338 37.5611C27.7847 37.4182 27.993 37.2126 28.1377 36.9651L35.5014 24.3839C35.5095 24.3731 35.5136 24.3624 35.5204 24.3543L32.1509 18.579C32.0242 18.3306 31.9988 18.0438 32.0797 17.7774C32.1606 17.5111 32.3417 17.2854 32.586 17.1467C32.8302 17.0079 33.1191 16.9667 33.3932 17.0314C33.6673 17.0961 33.9059 17.2619 34.06 17.4946L39.2882 26.4516C39.6233 27.0319 39.7982 27.6888 39.7954 28.3567C39.7925 29.0245 39.612 29.68 39.2718 30.2574V30.2574Z" fill="#FFC768"/>
</svg>
