<?xml version="1.0" standalone="no"?>
<!DOCTYPE svg PUBLIC "-//W3C//DTD SVG 1.0//EN" "http://www.w3.org/TR/2001/REC-SVG-20010904/DTD/svg10.dtd">
<svg xmlns="http://www.w3.org/2000/svg" xmlns:xlink="http://www.w3.org/1999/xlink" id="body_1" width="18" height="18">

<g transform="matrix(0.41860467 0 0 0.41860467 0 0)">
    <path d="M0 4C 0 1.790861 1.790861 0 4 0L4 0L39 0C 41.20914 0 43 1.790861 43 4L43 4L43 39C 43 41.20914 41.20914 43 39 43L39 43L4 43C 1.790861 43 0 41.20914 0 39L0 39L0 4z" stroke="none" fill="#0E0D1C" fill-rule="nonzero" />
    <path d="M30.568 24.8541C 30.568 24.3164 30.1561 23.8815 29.6444 23.8815C 29.1371 23.8828 28.7202 24.3164 28.7202 24.8541L28.7202 24.8541L28.7202 26.8674L24.9922 23.1376C 24.6317 22.7764 24.0482 22.7764 23.6876 23.1376C 23.3271 23.4981 23.3271 24.0835 23.6876 24.444L23.6876 24.444L27.3976 28.1528L25.3936 28.1528C 24.8479 28.154 24.4081 28.5672 24.4081 29.0764C 24.4081 29.5868 24.8479 29.9994 25.3936 29.9994L25.3936 29.9994L29.5818 29.9994C 30.1276 29.9994 30.5668 29.5874 30.5687 29.0764C 30.5668 29.0628 30.5649 29.0522 30.5631 29.0386C 30.5649 29.0212 30.5687 29.0027 30.5687 28.9847L30.5687 28.9847L30.5687 24.8541L30.568 24.8541z" stroke="none" fill="#FFFFFF" fill-rule="nonzero" />
    <path d="M18.5752 23.1375L14.8491 26.8673L14.8491 24.854C 14.8491 24.3163 14.4328 23.8827 13.9242 23.8815C 13.4138 23.8815 13.0012 24.3163 13.0012 24.854L13.0012 24.854L13 28.9852C 13 29.0032 13.005 29.0218 13.0062 29.0391C 13.005 29.0521 13.0025 29.0627 13.0012 29.0769C 13.0025 29.588 13.4423 29.9999 13.9874 29.9999L13.9874 29.9999L18.1763 29.9999C 18.7208 29.9999 19.1612 29.5874 19.1612 29.0769C 19.1612 28.5677 18.7208 28.1545 18.1763 28.1533L18.1763 28.1533L16.1723 28.1533L19.8823 24.4446C 20.2416 24.084 20.2416 23.4986 19.8823 23.1381C 19.5211 22.7763 18.937 22.7763 18.5752 23.1375z" stroke="none" fill="#FFFFFF" fill-rule="nonzero" />
    <path d="M24.9922 19.8612L28.7202 16.1339L28.7202 18.1471C 28.7202 18.683 29.1371 19.1166 29.6444 19.1185C 30.1561 19.1185 30.568 18.683 30.568 18.1471L30.568 18.1471L30.568 14.0147C 30.568 13.9967 30.5643 13.9781 30.5625 13.962C 30.5643 13.949 30.5662 13.9366 30.568 13.9236C 30.5662 13.4119 30.127 13 29.5818 13L29.5818 13L25.3936 13C 24.8479 13 24.4081 13.4119 24.4081 13.9236C 24.4081 14.4322 24.8479 14.8466 25.3936 14.8479L25.3936 14.8479L27.3976 14.8479L23.6876 18.5566C 23.3271 18.9165 23.3271 19.5007 23.6876 19.8606C 24.0482 20.2236 24.6317 20.2236 24.9922 19.8612z" stroke="none" fill="#FFFFFF" fill-rule="nonzero" />
    <path d="M16.1723 14.8479L18.1756 14.8479C 18.7201 14.8466 19.1606 14.4322 19.1606 13.9236C 19.1606 13.4119 18.7201 13 18.1756 13L18.1756 13L13.9874 13C 13.4423 13 13.0025 13.4119 13.0012 13.9236C 13.0025 13.9366 13.005 13.949 13.0062 13.962C 13.005 13.9781 13 13.9961 13 14.0147L13 14.0147L13.0012 18.1478C 13.0012 18.6836 13.4138 19.1191 13.9242 19.1191C 14.4328 19.1172 14.8491 18.6836 14.8491 18.1478L14.8491 18.1478L14.8491 16.1345L18.5752 19.8612C 18.937 20.2236 19.5211 20.2236 19.8823 19.8612C 20.2416 19.5013 20.2416 18.9171 19.8823 18.5572L19.8823 18.5572L16.1723 14.8479z" stroke="none" fill="#FFFFFF" fill-rule="nonzero" />
</g>
</svg>