<svg width="20" height="18" viewBox="0 0 20 18" fill="none" xmlns="http://www.w3.org/2000/svg">
<path d="M11.237 15.5911H10.957V14.8251C10.9567 14.638 10.8822 14.4585 10.7499 14.3262C10.6175 14.1939 10.4381 14.1194 10.251 14.1191H3.05797C2.87081 14.1194 2.69138 14.1939 2.55904 14.3262C2.4267 14.4585 2.35223 14.638 2.35197 14.8251V15.5871H2.07197C1.88481 15.5874 1.70538 15.6619 1.57304 15.7942C1.4407 15.9266 1.36623 16.106 1.36597 16.2931V16.9571C1.36623 17.1443 1.4407 17.3237 1.57304 17.4561C1.70538 17.5884 1.88481 17.6629 2.07197 17.6631H3.81297C3.88732 17.6588 3.95721 17.6262 4.00832 17.572C4.05942 17.5178 4.08789 17.4461 4.08789 17.3716C4.08789 17.2972 4.05942 17.2255 4.00832 17.1713C3.95721 17.1171 3.88732 17.0845 3.81297 17.0801H2.07096C2.03834 17.0801 2.00706 17.0672 1.98399 17.0441C1.96093 17.021 1.94797 16.9897 1.94797 16.9571V16.2931C1.94797 16.2605 1.96093 16.2292 1.98399 16.2061C2.00706 16.1831 2.03834 16.1701 2.07096 16.1701H11.237C11.2696 16.1701 11.3009 16.1831 11.3239 16.2061C11.347 16.2292 11.36 16.2605 11.36 16.2931V16.9571C11.36 16.9897 11.347 17.021 11.3239 17.0441C11.3009 17.0672 11.2696 17.0801 11.237 17.0801H5.15497C5.08061 17.0845 5.01072 17.1171 4.95962 17.1713C4.90851 17.2255 4.88005 17.2972 4.88005 17.3716C4.88005 17.4461 4.90851 17.5178 4.95962 17.572C5.01072 17.6262 5.08061 17.6588 5.15497 17.6631H11.237C11.4241 17.6629 11.6035 17.5884 11.7359 17.4561C11.8682 17.3237 11.9427 17.1443 11.943 16.9571V16.2931C11.9416 16.1067 11.8667 15.9283 11.7345 15.7968C11.6023 15.6653 11.4234 15.5914 11.237 15.5911ZM10.373 15.5911H2.93497V14.8251C2.93497 14.7925 2.94793 14.7612 2.97099 14.7382C2.99406 14.7151 3.02535 14.7021 3.05797 14.7021H10.25C10.2826 14.7021 10.3139 14.7151 10.3369 14.7382C10.36 14.7612 10.373 14.7925 10.373 14.8251V15.5871V15.5911Z" fill="white"/>
<path d="M19.718 14.922C19.5648 14.7691 19.3608 14.6779 19.1447 14.6655C18.9287 14.6531 18.7156 14.7206 18.546 14.855L10.49 6.79696C10.5406 6.71286 10.5691 6.61735 10.573 6.51929C10.5768 6.42122 10.5558 6.32376 10.512 6.23596L11.912 4.83596L11.922 4.84596C11.9759 4.89993 12.0399 4.94275 12.1103 4.97197C12.1807 5.00118 12.2562 5.01622 12.3325 5.01622C12.4088 5.01622 12.4843 5.00118 12.5547 4.97197C12.6251 4.94275 12.6891 4.89993 12.743 4.84596L13.265 4.32396C13.319 4.27009 13.3618 4.2061 13.391 4.13567C13.4202 4.06523 13.4352 3.98972 13.4352 3.91346C13.4352 3.83721 13.4202 3.7617 13.391 3.69126C13.3618 3.62082 13.319 3.55684 13.265 3.50296L10.257 0.494965C10.2031 0.440993 10.1391 0.398172 10.0687 0.368958C9.99826 0.339743 9.92275 0.324707 9.8465 0.324707C9.77024 0.324707 9.69473 0.339743 9.62429 0.368958C9.55385 0.398172 9.48987 0.440993 9.436 0.494965L8.91399 1.01696C8.86002 1.07084 8.81721 1.13482 8.78799 1.20526C8.75878 1.2757 8.74374 1.35121 8.74374 1.42746C8.74374 1.50372 8.75878 1.57923 8.78799 1.64967C8.81721 1.7201 8.86002 1.78409 8.91399 1.83796L8.924 1.84797L7.52399 3.24796C7.41497 3.19325 7.29149 3.17423 7.17106 3.19361C7.05062 3.213 6.93935 3.2698 6.853 3.35596L5.66499 4.54696C5.57905 4.63323 5.52239 4.74433 5.50301 4.86456C5.48363 4.98478 5.50251 5.10806 5.557 5.21696L4.157 6.61696L4.147 6.60696C4.03806 6.49821 3.89043 6.43712 3.7365 6.43712C3.58257 6.43712 3.43493 6.49821 3.326 6.60696L2.80399 7.12896C2.69524 7.2379 2.63416 7.38553 2.63416 7.53946C2.63416 7.69339 2.69524 7.84103 2.80399 7.94996L5.812 10.958C5.92093 11.0667 6.06857 11.1278 6.2225 11.1278C6.37643 11.1278 6.52406 11.0667 6.633 10.958L7.155 10.436C7.26376 10.327 7.32484 10.1794 7.32484 10.0255C7.32484 9.87153 7.26376 9.7239 7.155 9.61496L7.145 9.60497L8.545 8.20496C8.63278 8.24903 8.73033 8.27004 8.82847 8.26601C8.92661 8.26199 9.02211 8.23307 9.106 8.18196L17.165 16.238C17.0259 16.4144 16.9595 16.6372 16.9791 16.861C16.9987 17.0848 17.103 17.2926 17.2706 17.4421C17.4383 17.5917 17.6566 17.6716 17.8812 17.6656C18.1057 17.6596 18.3196 17.5682 18.479 17.41L19.72 16.169C19.8853 16.0036 19.9782 15.7793 19.9782 15.5455C19.9782 15.3116 19.8853 15.0874 19.72 14.922H19.718ZM9.84399 0.916962L12.844 3.91696L12.326 4.43496L9.326 1.43496L9.84399 0.916962ZM9.334 2.26796L10.415 3.34896L11.496 4.42996L10.121 5.80496L7.959 3.64296L9.334 2.26796ZM6.228 10.539L3.228 7.53896L3.74599 7.02096L6.74599 10.021L6.228 10.539ZM8.806 7.68196L7.713 6.58896C7.65723 6.54029 7.58507 6.51462 7.51109 6.51713C7.43712 6.51964 7.36686 6.55015 7.31452 6.60249C7.26218 6.65483 7.23167 6.72508 7.22916 6.79906C7.22665 6.87303 7.25233 6.9452 7.30099 7.00097L8.113 7.81297L6.738 9.18797L4.576 7.02596L5.951 5.65096L6.338 6.03796C6.39376 6.08663 6.46593 6.11231 6.5399 6.10979C6.61387 6.10728 6.68414 6.07677 6.73647 6.02444C6.78881 5.9721 6.81932 5.90184 6.82183 5.82787C6.82434 5.7539 6.79867 5.68173 6.75 5.62597L6.08199 4.95796L7.265 3.77396L9.99 6.49696L8.806 7.68196ZM9.531 7.78196L10.088 7.22496L18.128 15.265L17.849 15.544L17.57 15.823L9.531 7.78196ZM19.305 15.758L18.065 16.997C18.0385 17.0296 18.0055 17.0563 17.968 17.0753C17.9306 17.0943 17.8896 17.1053 17.8476 17.1074C17.8057 17.1096 17.7637 17.103 17.7245 17.0879C17.6853 17.0728 17.6497 17.0497 17.62 17.02C17.5903 16.9903 17.5671 16.9547 17.5521 16.9155C17.537 16.8762 17.5303 16.8343 17.5325 16.7924C17.5347 16.7504 17.5456 16.7094 17.5647 16.6719C17.5837 16.6345 17.6104 16.6014 17.643 16.575L18.884 15.334C18.9416 15.2872 19.0145 15.2634 19.0886 15.2673C19.1627 15.2711 19.2328 15.3022 19.2852 15.3547C19.3377 15.4072 19.3689 15.4772 19.3727 15.5514C19.3765 15.6255 19.3528 15.6984 19.306 15.756L19.305 15.758Z" fill="white"/>
<path d="M2.09895 6.30306C2.15472 6.35172 2.22688 6.3774 2.30086 6.37489C2.37483 6.37238 2.44509 6.34187 2.49743 6.28954C2.54976 6.2372 2.58027 6.16695 2.58278 6.09297C2.58529 6.019 2.55962 5.94683 2.51095 5.89107L1.73795 5.11806C1.71164 5.08791 1.67941 5.0635 1.64327 5.04633C1.60713 5.02915 1.56785 5.01959 1.52786 5.01823C1.48786 5.01688 1.44802 5.02375 1.4108 5.03844C1.37358 5.05312 1.33977 5.0753 1.31148 5.10359C1.28318 5.13189 1.261 5.16569 1.24632 5.20291C1.23164 5.24013 1.22476 5.27997 1.22612 5.31996C1.22748 5.35995 1.23704 5.39924 1.25421 5.43538C1.27139 5.47152 1.2958 5.50375 1.32595 5.53006L2.09895 6.30306Z" fill="white"/>
<path d="M1.64897 7.43012C1.66433 7.35442 1.64907 7.27571 1.60652 7.21124C1.56398 7.14676 1.49762 7.10178 1.42197 7.08613L0.350975 6.86613C0.277407 6.85578 0.202663 6.87386 0.141961 6.9167C0.0812603 6.95953 0.0391675 7.02389 0.0242548 7.09667C0.00934205 7.16945 0.0227308 7.24518 0.0616946 7.30843C0.100658 7.37169 0.162267 7.41771 0.233975 7.43713L1.30497 7.65713C1.34247 7.66487 1.38113 7.66513 1.41873 7.65791C1.45633 7.65068 1.49213 7.6361 1.52409 7.61501C1.55604 7.59393 1.58352 7.56674 1.60496 7.53501C1.62639 7.50328 1.64135 7.46764 1.64897 7.43012Z" fill="white"/>
<path d="M3.292 5.21372C3.29755 5.25321 3.31114 5.29115 3.33192 5.32519C3.35269 5.35923 3.38022 5.38865 3.4128 5.41165C3.44539 5.43464 3.48234 5.45071 3.52137 5.45888C3.56041 5.46704 3.6007 5.46712 3.63977 5.45912C3.67884 5.45111 3.71585 5.43519 3.74853 5.41233C3.78121 5.38947 3.80886 5.36016 3.82977 5.3262C3.85069 5.29225 3.86443 5.25437 3.87014 5.21491C3.87586 5.17544 3.87343 5.13522 3.863 5.09673L3.643 4.02573C3.62358 3.95402 3.57755 3.8924 3.5143 3.85344C3.45104 3.81448 3.37532 3.80109 3.30254 3.816C3.22976 3.83092 3.1654 3.87301 3.12257 3.93371C3.07973 3.99441 3.06165 4.06916 3.072 4.14272L3.292 5.21372Z" fill="white"/>
</svg>
