<svg width="24" height="24" viewBox="0 0 24 24" fill="none" xmlns="http://www.w3.org/2000/svg">
<path fill-rule="evenodd" clip-rule="evenodd" d="M8.25 5.25001C7.45435 5.25001 6.69129 5.56608 6.12868 6.12869C5.56607 6.6913 5.25 7.45436 5.25 8.25001C5.25 9.04566 5.56607 9.80872 6.12868 10.3713C6.69129 10.9339 7.45435 11.25 8.25 11.25C9.04565 11.25 9.80871 10.9339 10.3713 10.3713C10.9339 9.80872 11.25 9.04566 11.25 8.25001C11.25 7.45436 10.9339 6.6913 10.3713 6.12869C9.80871 5.56608 9.04565 5.25001 8.25 5.25001ZM3 8.25001C2.9999 7.37982 3.21609 6.52324 3.62915 5.75733C4.0422 4.99142 4.63916 4.3402 5.36633 3.86223C6.0935 3.38426 6.92808 3.09453 7.79499 3.01912C8.66191 2.9437 9.53398 3.08495 10.3328 3.43017C11.1315 3.77539 11.832 4.31375 12.3711 4.99682C12.9102 5.6799 13.2711 6.48627 13.4212 7.3434C13.5714 8.20054 13.5062 9.08156 13.2314 9.90723C12.9566 10.7329 12.4809 11.4773 11.847 12.0735C13.0423 12.6534 14.0801 13.513 14.8723 14.5795C15.6646 15.6459 16.188 16.8877 16.398 18.1995C16.4211 18.3455 16.4153 18.4946 16.3808 18.6383C16.3464 18.782 16.2839 18.9175 16.1971 19.0371C16.1102 19.1567 16.0007 19.258 15.8747 19.3352C15.7487 19.4124 15.6087 19.4641 15.4628 19.4873C15.3168 19.5104 15.1677 19.5046 15.024 19.4701C14.8803 19.4356 14.7448 19.3732 14.6252 19.2863C14.5056 19.1995 14.4043 19.0899 14.3271 18.9639C14.2498 18.8379 14.1981 18.698 14.175 18.552C13.948 17.1441 13.2271 15.8629 12.1414 14.9382C11.0557 14.0135 9.67613 13.5057 8.25 13.5057C6.82387 13.5057 5.44435 14.0135 4.35864 14.9382C3.27292 15.8629 2.55198 17.1441 2.325 18.552C2.30176 18.698 2.24999 18.8379 2.17266 18.9639C2.09533 19.0898 1.99394 19.1993 1.87429 19.2861C1.75465 19.3729 1.61908 19.4352 1.47533 19.4696C1.33158 19.504 1.18247 19.5098 1.0365 19.4865C0.890538 19.4633 0.750581 19.4115 0.624623 19.3342C0.498665 19.2568 0.389172 19.1554 0.302395 19.0358C0.215619 18.9161 0.153259 18.7806 0.118875 18.6368C0.0844918 18.4931 0.0787584 18.344 0.102002 18.198C0.312505 16.8867 0.836065 15.6455 1.6283 14.5797C2.42054 13.5138 3.45809 12.6546 4.653 12.075C4.1303 11.5846 3.71387 10.992 3.42953 10.3341C3.14519 9.67611 2.999 8.96677 3 8.25001ZM16.5 6.00001C16.2016 6.00001 15.9155 6.11853 15.7045 6.32951C15.4935 6.54049 15.375 6.82664 15.375 7.12501C15.375 7.42338 15.4935 7.70952 15.7045 7.9205C15.9155 8.13148 16.2016 8.25001 16.5 8.25001C17.0075 8.25003 17.5001 8.42165 17.8978 8.73698C18.2955 9.05231 18.5749 9.49283 18.6906 9.98699C18.8063 10.4811 18.7516 10.9999 18.5353 11.459C18.3189 11.9181 17.9537 12.2906 17.499 12.516C17.3115 12.6093 17.1537 12.7531 17.0435 12.9311C16.9332 13.1092 16.8749 13.3146 16.875 13.524V14.052C16.8747 14.3047 16.9595 14.5501 17.1156 14.7488C17.2718 14.9474 17.4904 15.0877 17.736 15.147C19.536 15.5805 20.979 16.947 21.519 18.705C21.5618 18.8468 21.6323 18.9788 21.7262 19.0933C21.8202 19.2079 21.9359 19.3027 22.0666 19.3724C22.1973 19.4422 22.3406 19.4854 22.488 19.4996C22.6355 19.5138 22.7843 19.4987 22.926 19.4553C23.0676 19.4118 23.1993 19.3408 23.3134 19.2463C23.4275 19.1518 23.5218 19.0358 23.591 18.9047C23.6601 18.7737 23.7027 18.6303 23.7162 18.4827C23.7298 18.3352 23.7141 18.1865 23.67 18.045C23.3698 17.0709 22.8746 16.168 22.2144 15.3913C21.5543 14.6146 20.743 13.9803 19.83 13.527C20.4164 12.8819 20.8029 12.0804 20.9423 11.2198C21.0818 10.3592 20.9682 9.47665 20.6155 8.67939C20.2628 7.88212 19.6861 7.20447 18.9555 6.72881C18.2249 6.25315 17.3718 5.99996 16.5 6.00001Z" fill="white"/>
</svg>
