<svg width="377" height="63" viewBox="0 0 377 63" fill="none" xmlns="http://www.w3.org/2000/svg">
<path d="M119.76 23.9202C119.76 32.9202 113.63 39.3002 103.53 39.3002H91.9998V54.9402H84.5898V8.74023H103.53C113.63 8.74023 119.76 14.8202 119.76 23.9202ZM112.17 23.9902C112.17 19.3002 109.33 15.8702 103.26 15.8702H91.9998V32.1702H103.22C109.33 32.1702 112.17 28.6702 112.17 24.0002V23.9902Z" fill="white"/>
<path d="M159 32.0001V54.9001H151.5V33.5601C151.5 27.9501 148.99 24.9801 143.5 24.9801C137.17 24.9801 133.74 29.1401 133.74 36.1301V54.9401H126.28V4.12012H133.74V24.5801C134.956 22.4561 136.73 20.7057 138.87 19.5192C141.01 18.3327 143.435 17.7554 145.88 17.8501C154 17.8501 159 23.2001 159 32.0001Z" fill="white"/>
<path d="M202 18.6402V54.9402H194.54V48.8702C193.209 51.0179 191.339 52.7807 189.117 53.9839C186.895 55.1871 184.397 55.7891 181.87 55.7302C172.17 55.7302 165.11 47.8802 165.11 36.7902C165.11 25.7002 172.3 17.8502 181.8 17.8502C184.349 17.8076 186.865 18.4309 189.1 19.6586C191.334 20.8863 193.209 22.6758 194.54 24.8502V18.6402H202ZM194.61 36.7902C194.61 29.8602 189.79 24.9802 183.45 24.9802C177.11 24.9802 172.63 29.8602 172.63 36.7902C172.63 43.7202 177.18 48.6102 183.45 48.6102C189.72 48.6102 194.59 43.7902 194.59 36.7902H194.61Z" fill="white"/>
<path d="M242.36 31.9998V54.8998H234.9V33.5598C234.9 27.9998 232.46 24.9998 227 24.9998C220.6 24.9998 217.17 29.1598 217.17 36.1498V54.9398H209.71V18.6398H217.17V24.6398C218.375 22.502 220.145 20.7369 222.286 19.5376C224.428 18.3383 226.857 17.7509 229.31 17.8398C237.48 17.8498 242.36 23.1998 242.36 31.9998Z" fill="white"/>
<path d="M277.8 53.0902C274.609 54.7902 271.056 55.6958 267.44 55.7302C259.98 55.7302 254.18 51.0502 254.18 41.0202V25.6402H247.44V18.6402H254.18V10.3902L261.63 8.74023V18.6402H276.55V25.6402H261.63V40.6402C261.63 45.9202 264.07 48.8202 268.76 48.8202C271.415 48.632 274.022 48.0175 276.48 47.0002L277.8 53.0902Z" fill="white"/>
<path d="M317.31 36.7901C317.368 39.2961 316.924 41.7883 316.005 44.1204C315.086 46.4525 313.71 48.5774 311.958 50.3702C310.207 52.163 308.114 53.5875 305.804 54.5601C303.493 55.5327 301.012 56.0337 298.505 56.0337C295.999 56.0337 293.517 55.5327 291.207 54.5601C288.897 53.5875 286.804 52.163 285.052 50.3702C283.3 48.5774 281.924 46.4525 281.005 44.1204C280.086 41.7883 279.643 39.2961 279.7 36.7901C279.643 34.2841 280.086 31.7918 281.005 29.4597C281.924 27.1276 283.3 25.0027 285.052 23.2099C286.804 21.4171 288.897 19.9926 291.207 19.02C293.517 18.0474 295.999 17.5464 298.505 17.5464C301.012 17.5464 303.493 18.0474 305.804 19.02C308.114 19.9926 310.207 21.4171 311.958 23.2099C313.71 25.0027 315.086 27.1276 316.005 29.4597C316.924 31.7918 317.368 34.2841 317.31 36.7901ZM287.22 36.7901C287.22 43.7901 292.17 48.6101 298.51 48.6101C304.85 48.6101 309.79 43.7901 309.79 36.7901C309.79 29.7901 304.78 25.0001 298.51 25.0001C292.24 25.0001 287.22 29.8001 287.22 36.7901Z" fill="white"/>
<path d="M376.29 31.6402V54.9402H368.83V33.2302C368.83 27.8202 366.65 24.9802 361.64 24.9802C355.76 24.9802 352.73 29.5302 352.73 36.1302L352.79 54.9402H345.27V33.2302C345.27 27.8202 343.09 24.9802 338.08 24.9802C332.2 24.9802 329.23 29.5302 329.23 36.1302V54.9402H321.78V18.6402H329.23V24.4502C331.74 20.2902 335.31 17.8502 340.52 17.8502C346.06 17.8502 349.96 20.5602 351.74 25.4402C352.829 23.1232 354.567 21.1723 356.743 19.8249C358.92 18.4774 361.441 17.7914 364 17.8502C371.67 17.8502 376.29 23.0002 376.29 31.6402Z" fill="white"/>
<path d="M72.7501 33.7399C72.4045 33.9429 72.0109 34.0499 71.6101 34.0499C71.2065 34.0554 70.8088 33.9537 70.4574 33.7551C70.106 33.5566 69.8136 33.2684 69.6101 32.9199L58.8001 14.2599C58.5005 13.745 58.0717 13.3173 57.556 13.0191C57.0403 12.721 56.4557 12.5627 55.8601 12.5599L25.1901 12.6199H25.0001L17.5201 25.6199C17.3174 25.9691 17.0251 26.2579 16.6736 26.4565C16.322 26.6552 15.9238 26.7564 15.5201 26.7499C15.1239 26.7489 14.7346 26.6455 14.3901 26.4499C14.1298 26.3017 13.9015 26.1033 13.7186 25.8661C13.5357 25.629 13.4017 25.3579 13.3245 25.0685C13.2472 24.7791 13.2283 24.4773 13.2688 24.1805C13.3092 23.8838 13.4082 23.598 13.5601 23.3399L24.3401 4.60986C25.039 3.3993 26.0429 2.39299 27.2517 1.69118C28.4606 0.989366 29.8323 0.616548 31.2301 0.609863H52.8001C53.0982 0.609863 53.3934 0.668578 53.6688 0.782657C53.9442 0.896735 54.1944 1.06394 54.4052 1.27473C54.616 1.48552 54.7832 1.73576 54.8973 2.01117C55.0114 2.28658 55.0701 2.58176 55.0701 2.87986C55.0701 3.17796 55.0114 3.47315 54.8973 3.74856C54.7832 4.02396 54.616 4.27421 54.4052 4.485C54.1944 4.69579 53.9442 4.86299 53.6688 4.97707C53.3934 5.09115 53.0982 5.14986 52.8001 5.14986H31.2301C30.6323 5.14889 30.0449 5.30554 29.527 5.604C29.009 5.90246 28.579 6.33219 28.2801 6.84986L27.6001 8.03986L55.8401 7.99986C57.2345 8.01003 58.602 8.3845 59.8071 9.08614C61.0122 9.78778 62.0129 10.7922 62.7101 11.9999L73.5701 30.6299C73.721 30.8878 73.8195 31.1729 73.86 31.469C73.9005 31.7651 73.8821 32.0662 73.8059 32.3551C73.7297 32.6441 73.5972 32.9151 73.416 33.1528C73.2349 33.3904 73.0085 33.5899 72.7501 33.7399Z" fill="url(#paint0_linear_723_1445)"/>
<path d="M41.9395 52.7202C41.9408 53.0192 41.8831 53.3154 41.7696 53.592C41.6561 53.8686 41.4891 54.12 41.2782 54.3318C41.0673 54.5437 40.8166 54.7118 40.5405 54.8265C40.2645 54.9412 39.9685 55.0002 39.6695 55.0002H23.9095H18.0895C16.6951 54.9901 15.3276 54.6156 14.1225 53.914C12.9174 53.2123 11.9167 52.2079 11.2195 51.0002L0.479524 32.2102C0.329244 31.9525 0.231482 31.6676 0.191877 31.3719C0.152272 31.0762 0.171608 30.7755 0.24877 30.4873C0.325931 30.1991 0.459392 29.9291 0.641452 29.6927C0.823512 29.4564 1.05057 29.2584 1.30952 29.1102C1.83285 28.8116 2.45279 28.7313 3.03495 28.8866C3.61711 29.042 4.11458 29.4206 4.41952 29.9402L15.1495 48.6702C15.4463 49.1883 15.8742 49.6191 16.3903 49.9193C16.9064 50.2194 17.4925 50.3784 18.0895 50.3802H19.8995L6.72952 28.2002C6.02738 26.9841 5.65773 25.6045 5.65773 24.2002C5.65773 22.7959 6.02738 21.4164 6.72952 20.2002L17.4095 1.51023C17.5513 1.24038 17.7459 1.00184 17.9819 0.808844C18.2178 0.615848 18.4902 0.472348 18.7828 0.386903C19.0754 0.301459 19.3822 0.275821 19.685 0.311518C19.9877 0.347216 20.2801 0.443518 20.5448 0.594679C20.8095 0.745841 21.0411 0.948765 21.2256 1.19135C21.4102 1.43393 21.544 1.71121 21.6191 2.00663C21.6942 2.30206 21.7091 2.60959 21.6628 2.91087C21.6164 3.21215 21.5099 3.50101 21.3495 3.76023L10.6295 22.4902C10.3321 23.0074 10.1756 23.5936 10.1756 24.1902C10.1756 24.7869 10.3321 25.373 10.6295 25.8902L25.1995 50.4002H39.6695C39.9715 50.4015 40.2702 50.4628 40.5483 50.5804C40.8264 50.6981 41.0784 50.8698 41.2895 51.0857C41.5007 51.3015 41.6669 51.5571 41.7785 51.8377C41.8901 52.1183 41.9448 52.4183 41.9395 52.7202Z" fill="url(#paint1_linear_723_1445)"/>
<path d="M66.4802 42.21L55.6702 60.89C55.3555 61.3899 54.859 61.7482 54.2854 61.8894C53.7117 62.0305 53.1057 61.9435 52.5949 61.6466C52.0841 61.3498 51.7085 60.8662 51.5472 60.2979C51.3859 59.7296 51.4515 59.1209 51.7302 58.6L62.5502 39.93C62.8447 39.4118 62.9996 38.826 62.9996 38.23C62.9996 37.6339 62.8447 37.0481 62.5502 36.53L61.3402 34.43L47.4602 58.48C46.7621 59.6891 45.7598 60.6944 44.5529 61.3962C43.3459 62.0979 41.9763 62.4715 40.5802 62.48H19.0002C18.4229 62.4417 17.8817 62.1853 17.4864 61.7629C17.0911 61.3405 16.8711 60.7835 16.8711 60.205C16.8711 59.6264 17.0911 59.0695 17.4864 58.647C17.8817 58.2246 18.4229 57.9683 19.0002 57.93H40.5902C41.1864 57.9302 41.7722 57.7731 42.2884 57.4747C42.8046 57.1762 43.2329 56.7468 43.5302 56.23L58.6802 29.94C58.6802 29.94 58.6802 29.94 58.6802 29.88L51.7802 17.83C51.6311 17.5713 51.5345 17.2857 51.4958 16.9897C51.4571 16.6936 51.4771 16.3929 51.5546 16.1045C51.6321 15.8162 51.7657 15.546 51.9477 15.3093C52.1297 15.0726 52.3565 14.874 52.6152 14.725C52.8739 14.5759 53.1594 14.4793 53.4555 14.4406C53.7515 14.4019 54.0523 14.4219 54.3406 14.4994C54.6289 14.5769 54.8992 14.7105 55.1359 14.8925C55.3726 15.0744 55.5711 15.3013 55.7202 15.56L66.4902 34.26C67.1816 35.471 67.5444 36.8418 67.5426 38.2363C67.5409 39.6308 67.1746 41.0006 66.4802 42.21Z" fill="url(#paint2_linear_723_1445)"/>
<defs>
<linearGradient id="paint0_linear_723_1445" x1="19.2701" y1="35.4699" x2="62.0901" y2="10.7399" gradientUnits="userSpaceOnUse">
<stop stop-color="#5F2CFF"/>
<stop offset="1" stop-color="#7722FC"/>
</linearGradient>
<linearGradient id="paint1_linear_723_1445" x1="363.971" y1="2703.78" x2="1717.09" y2="2107.47" gradientUnits="userSpaceOnUse">
<stop stop-color="#5F2CFF"/>
<stop offset="1" stop-color="#7722FC"/>
</linearGradient>
<linearGradient id="paint2_linear_723_1445" x1="989.258" y1="3277.12" x2="3396.82" y2="1811.42" gradientUnits="userSpaceOnUse">
<stop stop-color="#5F2CFF"/>
<stop offset="1" stop-color="#7722FC"/>
</linearGradient>
</defs>
</svg>
