<svg width="24" height="24" viewBox="0 0 24 24" fill="none" xmlns="http://www.w3.org/2000/svg">
<path d="M21.975 15.9375C22.049 16.0655 22.0969 16.2069 22.1162 16.3534C22.1355 16.5 22.1257 16.649 22.0874 16.7918C22.0491 16.9346 21.983 17.0684 21.893 17.1856C21.8029 17.3029 21.6906 17.4012 21.5625 17.475L12.5625 22.725C12.3915 22.8238 12.1975 22.8757 12 22.8757C11.8025 22.8757 11.6085 22.8238 11.4375 22.725L2.4375 17.475C2.30946 17.4011 2.19723 17.3028 2.1072 17.1855C2.01718 17.0683 1.95113 16.9345 1.91283 16.7917C1.87452 16.6489 1.86471 16.5 1.88396 16.3534C1.90321 16.2069 1.95113 16.0656 2.025 15.9375C2.09887 15.8095 2.19724 15.6972 2.31448 15.6072C2.43172 15.5172 2.56555 15.4511 2.70832 15.4128C2.85109 15.3745 3.00001 15.3647 3.14657 15.384C3.29313 15.4032 3.43446 15.4511 3.5625 15.525L12 20.4469L20.4375 15.525C20.5655 15.4511 20.7069 15.4031 20.8534 15.3838C21 15.3645 21.149 15.3743 21.2918 15.4126C21.4345 15.4509 21.5684 15.517 21.6856 15.607C21.8029 15.6971 21.9012 15.8094 21.975 15.9375V15.9375ZM20.4375 11.025L12 15.9469L3.5625 11.025C3.30392 10.8758 2.99666 10.8355 2.70832 10.9128C2.41998 10.9902 2.17419 11.1789 2.025 11.4375C1.87582 11.6961 1.83547 12.0034 1.91283 12.2917C1.99018 12.58 2.17892 12.8258 2.4375 12.975L11.4375 18.225C11.6088 18.3228 11.8027 18.3743 12 18.3743C12.1973 18.3743 12.3912 18.3228 12.5625 18.225L21.5625 12.975C21.6905 12.9011 21.8028 12.8028 21.8928 12.6855C21.9828 12.5683 22.0489 12.4345 22.0872 12.2917C22.1255 12.1489 22.1353 12 22.116 11.8534C22.0968 11.7069 22.0489 11.5656 21.975 11.4375C21.9011 11.3095 21.8028 11.1972 21.6855 11.1072C21.5683 11.0172 21.4345 10.9511 21.2917 10.9128C21.1489 10.8745 21 10.8647 20.8534 10.884C20.7069 10.9032 20.5655 10.9511 20.4375 11.025V11.025ZM1.875 7.50002C1.87582 7.3026 1.92814 7.10882 2.02679 6.93782C2.12544 6.76683 2.26701 6.62454 2.4375 6.52502L11.4375 1.27502C11.6091 1.17808 11.8029 1.12714 12 1.12714C12.1971 1.12714 12.3909 1.17808 12.5625 1.27502L21.5625 6.52502C21.7339 6.62366 21.8762 6.76572 21.9752 6.93689C22.0741 7.10806 22.1263 7.30229 22.1263 7.50002C22.1263 7.69774 22.0741 7.89197 21.9752 8.06314C21.8762 8.23431 21.7339 8.37637 21.5625 8.47502L12.5625 13.725C12.3915 13.8238 12.1975 13.8757 12 13.8757C11.8025 13.8757 11.6085 13.8238 11.4375 13.725L2.4375 8.47502C2.26701 8.37549 2.12544 8.2332 2.02679 8.06221C1.92814 7.89121 1.87582 7.69743 1.875 7.50002ZM5.23125 7.50002L12 11.4469L18.7688 7.50002L12 3.55314L5.23125 7.50002Z" fill="white"/>
</svg>
