<svg width="32" height="32" viewBox="0 0 32 32" fill="none" xmlns="http://www.w3.org/2000/svg">
<path d="M32 16C32 24.8366 24.8366 32 16 32C7.16344 32 0 24.8366 0 16C0 7.16344 7.16344 0 16 0C24.8366 0 32 7.16344 32 16Z" fill="#161429"/>
<path fill-rule="evenodd" clip-rule="evenodd" d="M16 30.08C23.7762 30.08 30.08 23.7762 30.08 16C30.08 8.22383 23.7762 1.92 16 1.92C8.22383 1.92 1.92 8.22383 1.92 16C1.92 23.7762 8.22383 30.08 16 30.08ZM16 32C24.8366 32 32 24.8366 32 16C32 7.16344 24.8366 0 16 0C7.16344 0 0 7.16344 0 16C0 24.8366 7.16344 32 16 32Z" fill="#FFC768"/>
<g clip-path="url(#clip0_725_1469)">
<path d="M27.0845 16.7705C26.9785 16.8315 26.8581 16.8639 26.7354 16.8644C26.6119 16.8648 26.4905 16.8332 26.3833 16.7727C26.2761 16.7123 26.1869 16.6251 26.1245 16.52L22.7488 10.7979C22.6558 10.6407 22.5226 10.5102 22.3626 10.4196C22.2026 10.329 22.0213 10.2813 21.8368 10.2813L12.3058 10.3002C12.2853 10.3011 12.2647 10.2994 12.2447 10.295L9.91449 14.2642C9.81734 14.417 9.6639 14.5266 9.48647 14.5701C9.30903 14.6135 9.12143 14.5874 8.96314 14.4971C8.80485 14.4069 8.68821 14.2596 8.63776 14.0862C8.58732 13.9129 8.607 13.727 8.69267 13.5677L12.0431 7.84037C12.2607 7.47046 12.5728 7.1633 12.9483 6.94953C13.3237 6.73576 13.7495 6.62285 14.183 6.62207H20.8882C21.0754 6.62207 21.255 6.69546 21.3874 6.82608C21.5198 6.95671 21.5942 7.13388 21.5942 7.31861C21.5942 7.50334 21.5198 7.68051 21.3874 7.81114C21.255 7.94176 21.0754 8.01515 20.8882 8.01515H14.1821C13.9967 8.01522 13.8145 8.06348 13.6539 8.15507C13.4934 8.24666 13.3601 8.37836 13.2675 8.53691L13.0546 8.90196L21.8298 8.88561H21.8368C22.2694 8.88694 22.6941 9.00004 23.0686 9.21363C23.4432 9.42723 23.7544 9.73387 23.9715 10.103L27.3394 15.8209C27.4329 15.9802 27.4587 16.1696 27.4109 16.3476C27.3631 16.5257 27.2458 16.6777 27.0845 16.7705Z" fill="#FFC768"/>
<path d="M17.5111 22.5869C17.5104 22.7712 17.4358 22.9477 17.3034 23.0777C17.1711 23.2078 16.9919 23.2808 16.8051 23.2808L11.9091 23.2671L10.0982 23.2628C9.66519 23.2604 9.24035 23.1463 8.86587 22.9318C8.49139 22.7173 8.1803 22.4099 7.9635 22.0402L4.62707 16.3017C4.54601 16.1427 4.5297 15.9592 4.58148 15.7887C4.63326 15.6182 4.74921 15.4738 4.90553 15.385C5.06185 15.2962 5.24669 15.2698 5.42211 15.3113C5.59753 15.3527 5.75023 15.4587 5.84888 15.6077L9.18357 21.3471C9.27587 21.506 9.40903 21.6381 9.56962 21.73C9.73021 21.8219 9.91254 21.8704 10.0982 21.8705H10.6594L6.57499 15.0705C6.35657 14.7003 6.24049 14.28 6.23834 13.8516C6.2362 13.4233 6.34807 13.0019 6.56277 12.6296L9.89136 6.88851C9.93262 6.80121 9.99179 6.7233 10.0651 6.6597C10.1385 6.59611 10.2244 6.54821 10.3174 6.51904C10.4105 6.48986 10.5087 6.48005 10.6058 6.49022C10.7029 6.50038 10.7968 6.53031 10.8815 6.5781C10.9663 6.62589 11.0401 6.69051 11.0983 6.76788C11.1565 6.84525 11.1977 6.93367 11.2195 7.02758C11.2413 7.12148 11.2431 7.21882 11.2248 7.31344C11.2065 7.40806 11.1685 7.49791 11.1132 7.5773L7.78372 13.3218C7.69193 13.4808 7.64409 13.6608 7.64501 13.8438C7.64593 14.0268 7.69557 14.2064 7.78896 14.3645L12.3097 21.8757L16.8051 21.8878C16.9925 21.8889 17.1718 21.963 17.304 22.0939C17.4362 22.2249 17.5107 22.4021 17.5111 22.5869Z" fill="#FFC768"/>
<path d="M25.1346 19.3656L21.7772 25.0912C21.7145 25.196 21.6251 25.2828 21.518 25.3432C21.4109 25.4036 21.2897 25.4354 21.1663 25.4356C21.0436 25.4351 20.9232 25.4027 20.8172 25.3417C20.6555 25.2501 20.5372 25.099 20.4881 24.9215C20.439 24.744 20.4632 24.5546 20.5554 24.3946L23.9154 18.6691C24.0077 18.5104 24.0562 18.3307 24.0562 18.1477C24.0562 17.9648 24.0077 17.7851 23.9154 17.6264L23.541 16.9841L19.2297 24.355C19.0129 24.7246 18.7015 25.0315 18.3267 25.2451C17.952 25.4587 17.527 25.5716 17.0942 25.5725L10.3881 25.5802C10.2051 25.5739 10.0316 25.4977 9.9044 25.3676C9.77716 25.2376 9.70605 25.064 9.70605 24.8832C9.70605 24.7025 9.77716 24.5289 9.9044 24.3988C10.0316 24.2688 10.2051 24.1926 10.3881 24.1863L17.0942 24.1794C17.2796 24.1795 17.4617 24.1314 17.6223 24.04C17.7829 23.9485 17.9162 23.8169 18.0088 23.6585L22.7215 15.6065C22.7267 15.5997 22.7294 15.5928 22.7337 15.5876L20.5772 11.8914C20.4962 11.7324 20.4799 11.5489 20.5316 11.3784C20.5834 11.208 20.6994 11.0635 20.8557 10.9747C21.012 10.8859 21.1968 10.8595 21.3723 10.901C21.5477 10.9424 21.7004 11.0485 21.799 11.1974L25.1451 16.9299C25.3596 17.3013 25.4715 17.7217 25.4697 18.1491C25.4678 18.5766 25.3523 18.996 25.1346 19.3656Z" fill="#FFC768"/>
</g>
<defs>
<clipPath id="clip0_725_1469">
<rect width="23.04" height="19.2" fill="white" transform="translate(4.48047 6.40039)"/>
</clipPath>
</defs>
</svg>
