<svg width="248" height="105" viewBox="0 0 248 105" fill="none" xmlns="http://www.w3.org/2000/svg">
<g opacity="0.5">
<path opacity="0.5" d="M247.366 113.854C248.099 109.416 237.104 10.2143 155.74 28.1153C74.3756 46.0163 41.3892 -11.4158 -1.12573 3.50124C-43.6407 18.4182 -44.3737 28.1153 -44.3737 28.1153" stroke="white"/>
<path opacity="0.5" d="M236.556 125.42C237.289 120.982 226.294 21.7802 144.93 39.6812C63.5653 57.5822 30.5789 0.150159 -11.936 15.0672C-54.451 29.9842 -55.184 39.6812 -55.184 39.6812" stroke="white"/>
<path opacity="0.5" d="M226.728 137.42C227.461 132.982 216.466 33.7802 135.102 51.6812C53.7379 69.5822 20.7515 12.1502 -21.7634 27.0672C-64.2784 41.9842 -65.0114 51.6812 -65.0114 51.6812" stroke="white"/>
<path opacity="0.5" d="M215.918 151.42C216.651 146.982 205.656 47.7802 124.292 65.6812C42.9276 83.5822 9.94124 26.1502 -32.5737 41.0672C-75.0887 55.9842 -75.8217 65.6812 -75.8217 65.6812" stroke="white"/>
<path opacity="0.5" d="M205.108 165.42C205.841 160.982 194.846 61.7802 113.482 79.6812C32.1173 97.5822 -0.869062 40.1502 -43.384 55.0672C-85.899 69.9842 -86.632 79.6812 -86.632 79.6812" stroke="white"/>
<path opacity="0.5" d="M195.28 179.42C196.013 174.982 185.018 75.7802 103.654 93.6812C22.2896 111.582 -10.6967 54.1502 -53.2117 69.0672C-95.7266 83.9842 -96.4596 93.6812 -96.4596 93.6812" stroke="white"/>
</g>
</svg>
