<svg width="18" height="19" viewBox="0 0 18 19" fill="none" xmlns="http://www.w3.org/2000/svg">
<path d="M14.25 4.25V14.75H3.75V4.25H14.25ZM14.25 2.75H3.75C2.925 2.75 2.25 3.425 2.25 4.25V14.75C2.25 15.575 2.925 16.25 3.75 16.25H14.25C15.075 16.25 15.75 15.575 15.75 14.75V4.25C15.75 3.425 15.075 2.75 14.25 2.75Z" fill="white"/>
<path fill-rule="evenodd" clip-rule="evenodd" d="M6.08333 5.75H11.9167C12.375 5.75 12.75 6.125 12.75 6.58333V12.4167C12.75 12.875 12.375 13.25 11.9167 13.25H6.08333C5.625 13.25 5.25 12.875 5.25 12.4167V6.58333C5.25 6.125 5.625 5.75 6.08333 5.75ZM11.25 7.25H6.75V11.75H11.25V7.25Z" fill="white"/>
</svg>
