<?xml version="1.0" standalone="no"?>
<!DOCTYPE svg PUBLIC "-//W3C//DTD SVG 1.0//EN" "http://www.w3.org/TR/2001/REC-SVG-20010904/DTD/svg10.dtd">
<svg xmlns="http://www.w3.org/2000/svg" xmlns:xlink="http://www.w3.org/1999/xlink" id="body_1" width="31" height="32">

<g transform="matrix(0.8611111 0 0 0.8611111 -0 0.06944396)">
    <path d="M36 18.5C 36 23.470566 34.24264 27.713205 30.72792 31.22792C 27.213203 34.74264 22.970564 36.5 18 36.5C 13.029437 36.5 8.786797 34.74264 5.2720785 31.22792C 1.7573595 27.713205 0 23.470566 0 18.5C 0 13.529437 1.7573595 9.286797 5.2720785 5.7720785C 8.786797 2.2573595 13.029437 0.5 18 0.5C 22.970564 0.5 27.213203 2.2573595 30.72792 5.7720785C 34.24264 9.286797 36 13.529437 36 18.5C 36 18.709461 35.996346 18.91886 35.989037 19.128191" stroke="none" fill="#7722FC" fill-rule="nonzero" />
	<g>
        <path d="M30.469 19.3662C 30.3498 19.4349 30.2143 19.4713 30.0763 19.4718C 29.9373 19.4722 29.8007 19.4367 29.6801 19.3687C 29.5595 19.3007 29.4591 19.2027 29.389 19.0844L29.389 19.0844L25.5913 12.647C 25.4867 12.4701 25.3369 12.3234 25.1569 12.2214C 24.9768 12.1195 24.7729 12.0658 24.5653 12.0658L24.5653 12.0658L13.8429 12.0871C 13.8198 12.0882 13.7967 12.0862 13.7742 12.0813L13.7742 12.0813L11.1527 16.5466C 11.0434 16.7185 10.8708 16.8418 10.6712 16.8907C 10.4716 16.9396 10.2605 16.9102 10.0824 16.8087C 9.90435 16.7072 9.77313 16.5414 9.71638 16.3464C 9.65963 16.1514 9.68178 15.9422 9.77815 15.763L9.77815 15.763L13.5474 9.3198C 13.7922 8.90365 14.1433 8.5581 14.5657 8.31761C 14.9881 8.07712 15.4671 7.9501 15.9548 7.94922L15.9548 7.94922L23.4981 7.94922C 23.7087 7.94922 23.9108 8.03178 24.0597 8.17873C 24.2087 8.32569 24.2924 8.525 24.2924 8.73282C 24.2924 8.94065 24.2087 9.13996 24.0597 9.28692C 23.9108 9.43387 23.7087 9.51643 23.4981 9.51643L23.4981 9.51643L15.9538 9.51643C 15.7451 9.51651 15.5402 9.5708 15.3596 9.67384C 15.1789 9.77689 15.029 9.92504 14.9248 10.1034L14.9248 10.1034L14.6853 10.5141L24.5575 10.4957L24.5653 10.4957C 25.052 10.4972 25.5298 10.6244 25.9511 10.8647C 26.3724 11.105 26.7226 11.45 26.9668 11.8653L26.9668 11.8653L30.7557 18.2979C 30.861 18.4771 30.8899 18.6902 30.8361 18.8905C 30.7824 19.0908 30.6504 19.2618 30.469 19.3662z" stroke="none" fill="#FFFFFF" fill-rule="nonzero" />
        <path d="M19.6994 25.91C 19.6986 26.1173 19.6146 26.3159 19.4657 26.4622C 19.3169 26.6085 19.1153 26.6907 18.9051 26.6907L18.9051 26.6907L13.3971 26.6752L11.3599 26.6704C 10.8727 26.6677 10.3948 26.5393 9.9735 26.298C 9.55221 26.0568 9.20223 25.7109 8.95833 25.2949L8.95833 25.2949L5.20484 18.8391C 5.11365 18.6603 5.0953 18.4538 5.15355 18.262C 5.21181 18.0703 5.34225 17.9078 5.51811 17.8079C 5.69397 17.708 5.90191 17.6783 6.09926 17.7249C 6.29661 17.7715 6.4684 17.8908 6.57938 18.0584L6.57938 18.0584L10.3309 24.5152C 10.4347 24.694 10.5845 24.8426 10.7652 24.946C 10.9459 25.0494 11.151 25.1039 11.3599 25.1041L11.3599 25.1041L11.9912 25.1041L7.39626 17.454C 7.15053 17.0375 7.01994 16.5647 7.01753 16.0828C 7.01511 15.601 7.14097 15.1269 7.38251 14.708L7.38251 14.708L11.1272 8.24933C 11.1736 8.15112 11.2402 8.06346 11.3227 7.99192C 11.4052 7.92037 11.5018 7.86649 11.6065 7.83367C 11.7112 7.80085 11.8216 7.78981 11.9309 7.80125C 12.0401 7.81269 12.1458 7.84635 12.2411 7.90012C 12.3365 7.95389 12.4195 8.02658 12.485 8.11362C 12.5504 8.20066 12.5969 8.30014 12.6213 8.40578C 12.6458 8.51142 12.6478 8.62093 12.6273 8.72738C 12.6067 8.83382 12.5639 8.9349 12.5017 9.02422L12.5017 9.02422L8.75607 15.4868C 8.65281 15.6657 8.59899 15.8682 8.60003 16.0741C 8.60106 16.2799 8.65691 16.4819 8.76197 16.6598L8.76197 16.6598L13.8478 25.1099L18.9051 25.1235C 19.1159 25.1248 19.3176 25.2081 19.4664 25.3554C 19.6152 25.5027 19.6989 25.7021 19.6994 25.91z" stroke="none" fill="#FFFFFF" fill-rule="nonzero" />
        <path d="M28.2761 22.2855L24.499 28.7267C 24.4284 28.8446 24.3279 28.9423 24.2074 29.0103C 24.0869 29.0782 23.9505 29.114 23.8117 29.1142C 23.6737 29.1136 23.5382 29.0772 23.419 29.0086C 23.2371 28.9055 23.104 28.7355 23.0487 28.5358C 22.9935 28.3362 23.0208 28.123 23.1245 27.9431L23.1245 27.9431L26.9045 21.5019C 27.0082 21.3233 27.0628 21.1211 27.0628 20.9154C 27.0628 20.7096 27.0082 20.5074 26.9045 20.3289L26.9045 20.3289L26.4833 19.6063L21.6331 27.8986C 21.3891 28.3143 21.0388 28.6596 20.6172 28.8999C 20.1956 29.1402 19.7175 29.2672 19.2306 29.2682L19.2306 29.2682L11.6863 29.2769C 11.4803 29.2697 11.2852 29.184 11.1421 29.0377C 10.9989 28.8915 10.9189 28.6961 10.9189 28.4928C 10.9189 28.2895 10.9989 28.0941 11.1421 27.9479C 11.2852 27.8016 11.4803 27.7159 11.6863 27.7087L11.6863 27.7087L19.2306 27.701C 19.4391 27.7011 19.6441 27.647 19.8247 27.5441C 20.0053 27.4412 20.1553 27.2932 20.2595 27.1149L20.2595 27.1149L25.5613 18.0565C 25.5672 18.0488 25.5702 18.041 25.5751 18.0352L25.5751 18.0352L23.149 13.877C 23.0578 13.6981 23.0395 13.4916 23.0977 13.2999C 23.156 13.1081 23.2864 12.9456 23.4623 12.8457C 23.6381 12.7458 23.8461 12.7161 24.0434 12.7627C 24.2408 12.8093 24.4126 12.9287 24.5236 13.0963L24.5236 13.0963L28.2878 19.5453C 28.5292 19.9631 28.6551 20.436 28.653 20.9169C 28.6509 21.3978 28.521 21.8697 28.2761 22.2855z" stroke="none" fill="#FFFFFF" fill-rule="nonzero" />
	</g>
</g>
</svg>